<svg width="1393" height="323" viewBox="0 0 1393 323" fill="none" xmlns="http://www.w3.org/2000/svg">
<path d="M890.45 106.575C889 101.725 886.288 97.6375 882.312 94.3125C878.338 90.9875 873.65 89.075 868.25 88.575V93.75L890.45 106.575ZM852.275 119.1L863.75 112.35V88.575C861.7 88.825 859.713 89.25 857.788 89.85C855.863 90.45 854.025 91.325 852.275 92.475V119.1ZM842.825 124.725L847.775 121.8V96.075C845.425 98.475 843.625 101.238 842.375 104.363C841.125 107.488 840.5 110.7 840.5 114C840.5 115.95 840.7 117.788 841.1 119.513C841.5 121.238 842.075 122.975 842.825 124.725ZM854.3 136.725L877.775 123.15L866 116.25L845 128.625C846.2 130.275 847.588 131.812 849.163 133.238C850.738 134.663 852.45 135.825 854.3 136.725ZM866 139.5C870.3 139.5 874.275 138.538 877.925 136.613C881.575 134.688 884.6 132.025 887 128.625L882.125 125.775L859.85 138.75C860.85 139 861.875 139.188 862.925 139.313C863.975 139.438 865 139.5 866 139.5ZM889.175 124.65C890.075 122.75 890.7 120.825 891.05 118.875C891.4 116.925 891.55 114.85 891.5 112.65L868.25 99.075V112.35L889.175 124.65ZM866 144C861.85 144 857.95 143.213 854.3 141.638C850.65 140.063 847.475 137.925 844.775 135.225C842.075 132.525 839.938 129.35 838.363 125.7C836.788 122.05 836 118.15 836 114C836 109.85 836.788 105.95 838.363 102.3C839.938 98.65 842.075 95.475 844.775 92.775C847.475 90.075 850.65 87.9375 854.3 86.3625C857.95 84.7875 861.85 84 866 84C870.15 84 874.05 84.7875 877.7 86.3625C881.35 87.9375 884.525 90.075 887.225 92.775C889.925 95.475 892.063 98.65 893.638 102.3C895.213 105.95 896 109.85 896 114C896 118.15 895.213 122.05 893.638 125.7C892.063 129.35 889.925 132.525 887.225 135.225C884.525 137.925 881.35 140.063 877.7 141.638C874.05 143.213 870.15 144 866 144Z" fill="#99CBA1"/>
<path d="M737.225 287.176L734 284.045L747.057 271.369C748.702 269.772 749.875 267.772 750.575 265.369C751.275 262.966 751.625 259.605 751.625 255.285C751.625 252.519 752.25 249.801 753.5 247.131C754.75 244.461 756.65 241.888 759.2 239.412C763.6 235.141 768.427 232.714 773.681 232.131C778.936 231.549 783.259 232.908 786.65 236.208C790.05 239.509 791.45 243.732 790.85 248.877C790.25 254.023 787.75 258.731 783.35 263.003C780.8 265.478 778.15 267.298 775.399 268.463C772.648 269.628 769.849 270.211 767 270.211C762.55 270.211 759.063 270.526 756.538 271.157C754.013 271.788 751.925 272.905 750.275 274.507L737.225 287.176ZM758.975 263.003C761.425 265.381 764.75 266.267 768.95 265.66C773.15 265.053 776.925 263.124 780.275 259.872C783.619 256.64 785.617 253.016 786.27 249.002C786.923 244.987 786.025 241.791 783.575 239.412C781.125 237.034 777.812 236.148 773.638 236.755C769.463 237.361 765.7 239.291 762.35 242.543C759 245.795 756.988 249.426 756.312 253.434C755.638 257.443 756.525 260.633 758.975 263.003ZM783.2 295.84C780.2 295.84 777.65 294.821 775.55 292.782C773.45 290.743 772.4 288.268 772.4 285.355C772.4 282.443 773.45 279.967 775.55 277.929C777.65 275.89 780.2 274.871 783.2 274.871C786.2 274.871 788.75 275.89 790.85 277.929C792.95 279.967 794 282.443 794 285.355C794 288.268 792.95 290.743 790.85 292.782C788.75 294.821 786.2 295.84 783.2 295.84ZM783.2 291.471C785 291.471 786.5 290.889 787.7 289.724C788.9 288.559 789.5 287.103 789.5 285.355C789.5 283.608 788.9 282.152 787.7 280.987C786.5 279.822 785 279.239 783.2 279.239C781.4 279.239 779.9 279.822 778.7 280.987C777.5 282.152 776.9 283.608 776.9 285.355C776.9 287.103 777.5 288.559 778.7 289.724C779.9 290.889 781.4 291.471 783.2 291.471Z" fill="#99CBA1"/>
<path d="M620 295C615.9 295 612.025 294.213 608.375 292.638C604.725 291.063 601.538 288.913 598.812 286.188C596.088 283.463 593.938 280.275 592.363 276.625C590.788 272.975 590 269.1 590 265C590 260.85 590.788 256.963 592.363 253.338C593.938 249.713 596.088 246.538 598.812 243.812C601.538 241.088 604.725 238.938 608.375 237.363C612.025 235.788 615.9 235 620 235C624.15 235 628.038 235.788 631.663 237.363C635.288 238.938 638.463 241.088 641.188 243.812C643.913 246.538 646.063 249.713 647.638 253.338C649.213 256.963 650 260.85 650 265C650 269.1 649.213 272.975 647.638 276.625C646.063 280.275 643.913 283.463 641.188 286.188C638.463 288.913 635.288 291.063 631.663 292.638C628.038 294.213 624.15 295 620 295ZM635.375 258.025L640.55 256.225L641.9 251.425C640.2 248.775 638.1 246.513 635.6 244.638C633.1 242.763 630.275 241.325 627.125 240.325L622.25 243.55V248.8L635.375 258.025ZM604.7 258.025L617.75 248.8V243.55L612.95 240.325C609.8 241.325 606.975 242.763 604.475 244.638C601.975 246.513 599.875 248.775 598.175 251.425L599.825 256.225L604.7 258.025ZM600.65 282.025L605.15 281.5L608.075 276.625L603.425 262.3L598.1 260.5L594.5 263.425C594.5 267.025 594.9 270.312 595.7 273.288C596.5 276.263 598.15 279.175 600.65 282.025ZM620 290.5C621.35 290.5 622.713 290.375 624.088 290.125C625.463 289.875 626.9 289.55 628.4 289.15L630.875 283.75L628.475 279.625H611.6L609.2 283.75L611.675 289.15C612.975 289.55 614.35 289.875 615.8 290.125C617.25 290.375 618.65 290.5 620 290.5ZM612.05 275.125H627.65L632.225 261.4L620 252.625L607.55 261.4L612.05 275.125ZM639.425 282.025C641.875 279.175 643.5 276.263 644.3 273.288C645.1 270.312 645.5 267.025 645.5 263.425L641.9 260.95L636.65 262.3L632 276.625L634.85 281.5L639.425 282.025Z" fill="#99CBA1"/>
<path d="M438.286 149C437.257 149 436.429 148.715 435.8 148.144C435.171 147.574 434.857 146.822 434.857 145.889V138.5H469.143V145.889C469.143 146.822 468.829 147.574 468.2 148.144C467.571 148.715 466.743 149 465.714 149H438.286ZM476 108.167V118.044C476 118.407 475.971 118.641 475.914 118.744L473.257 130.256C473.029 131.137 472.571 131.837 471.886 132.356C471.2 132.874 470.371 133.133 469.4 133.133H434.6C433.629 133.133 432.8 132.874 432.114 132.356C431.429 131.837 430.971 131.137 430.743 130.256L428.086 118.744C428.029 118.641 428 118.407 428 118.044V97.6667C428 96.3185 428.486 95.2037 429.457 94.3222C430.429 93.4407 431.657 93 433.143 93H464.857C466.343 93 467.571 93.4407 468.543 94.3222C469.514 95.2037 470 96.3185 470 97.6667V108.167C470 107.337 470.271 106.676 470.814 106.183C471.357 105.691 472.086 105.444 473 105.444C473.914 105.444 474.643 105.691 475.186 106.183C475.729 106.676 476 107.337 476 108.167ZM435.629 128.467H468.371L470.857 117.033V114.156H464.857V97.6667H433.143V117.033L435.629 128.467ZM439.571 114.156H458.429V103.733H439.571V114.156Z" fill="#99CBA1"/>
<path d="M1028.45 205.575C1027 200.725 1024.29 196.638 1020.31 193.312C1016.34 189.988 1011.65 188.075 1006.25 187.575V192.75L1028.45 205.575ZM990.275 218.1L1001.75 211.35V187.575C999.7 187.825 997.713 188.25 995.788 188.85C993.863 189.45 992.025 190.325 990.275 191.475V218.1ZM980.825 223.725L985.775 220.8V195.075C983.425 197.475 981.625 200.238 980.375 203.363C979.125 206.488 978.5 209.7 978.5 213C978.5 214.95 978.7 216.788 979.1 218.513C979.5 220.238 980.075 221.975 980.825 223.725ZM992.3 235.725L1015.78 222.15L1004 215.25L983 227.625C984.2 229.275 985.588 230.812 987.163 232.238C988.738 233.663 990.45 234.825 992.3 235.725ZM1004 238.5C1008.3 238.5 1012.28 237.538 1015.93 235.613C1019.58 233.688 1022.6 231.025 1025 227.625L1020.12 224.775L997.85 237.75C998.85 238 999.875 238.188 1000.93 238.313C1001.98 238.438 1003 238.5 1004 238.5ZM1027.18 223.65C1028.08 221.75 1028.7 219.825 1029.05 217.875C1029.4 215.925 1029.55 213.85 1029.5 211.65L1006.25 198.075V211.35L1027.18 223.65ZM1004 243C999.85 243 995.95 242.213 992.3 240.638C988.65 239.063 985.475 236.925 982.775 234.225C980.075 231.525 977.938 228.35 976.363 224.7C974.788 221.05 974 217.15 974 213C974 208.85 974.788 204.95 976.363 201.3C977.938 197.65 980.075 194.475 982.775 191.775C985.475 189.075 988.65 186.938 992.3 185.363C995.95 183.788 999.85 183 1004 183C1008.15 183 1012.05 183.788 1015.7 185.363C1019.35 186.938 1022.53 189.075 1025.23 191.775C1027.93 194.475 1030.06 197.65 1031.64 201.3C1033.21 204.95 1034 208.85 1034 213C1034 217.15 1033.21 221.05 1031.64 224.7C1030.06 228.35 1027.93 231.525 1025.23 234.225C1022.53 236.925 1019.35 239.063 1015.7 240.638C1012.05 242.213 1008.15 243 1004 243Z" fill="#99CBA1"/>
<path d="M1031.12 125.2C1033.68 123.35 1035.65 120.975 1037.05 118.075C1038.45 115.175 1039.15 112.15 1039.15 109C1039.15 105.85 1038.45 102.812 1037.05 99.8875C1035.65 96.9625 1033.68 94.575 1031.12 92.725C1029.23 95.025 1027.81 97.5625 1026.89 100.338C1025.96 103.113 1025.5 106 1025.5 109C1025.5 112 1025.96 114.875 1026.89 117.625C1027.81 120.375 1029.23 122.9 1031.12 125.2ZM1051 134.5C1054.1 134.5 1057.06 134.013 1059.89 133.038C1062.71 132.063 1065.33 130.55 1067.73 128.5C1064.78 126.1 1062.49 123.188 1060.86 119.763C1059.24 116.338 1058.43 112.75 1058.43 109C1058.43 105.25 1059.24 101.65 1060.86 98.2C1062.49 94.75 1064.78 91.825 1067.73 89.425C1065.33 87.425 1062.71 85.9375 1059.89 84.9625C1057.06 83.9875 1054.1 83.5 1051 83.5C1047.9 83.5 1044.94 83.9875 1042.11 84.9625C1039.29 85.9375 1036.68 87.425 1034.28 89.425C1037.23 91.825 1039.53 94.75 1041.18 98.2C1042.83 101.65 1043.65 105.25 1043.65 109C1043.65 112.75 1042.83 116.338 1041.18 119.763C1039.53 123.188 1037.23 126.1 1034.28 128.5C1036.68 130.55 1039.29 132.063 1042.11 133.038C1044.94 134.013 1047.9 134.5 1051 134.5ZM1070.95 125.2C1072.85 122.9 1074.25 120.375 1075.15 117.625C1076.05 114.875 1076.5 112 1076.5 109C1076.5 106 1076.05 103.113 1075.15 100.338C1074.25 97.5625 1072.85 95.025 1070.95 92.725C1068.4 94.575 1066.43 96.9625 1065.03 99.8875C1063.62 102.812 1062.93 105.85 1062.93 109C1062.93 112.15 1063.62 115.175 1065.03 118.075C1066.43 120.975 1068.4 123.35 1070.95 125.2ZM1051 139C1046.9 139 1043.03 138.213 1039.38 136.638C1035.73 135.063 1032.54 132.913 1029.81 130.188C1027.09 127.463 1024.94 124.275 1023.36 120.625C1021.79 116.975 1021 113.1 1021 109C1021 104.85 1021.79 100.963 1023.36 97.3375C1024.94 93.7125 1027.09 90.5375 1029.81 87.8125C1032.54 85.0875 1035.73 82.9375 1039.38 81.3625C1043.03 79.7875 1046.9 79 1051 79C1055.15 79 1059.04 79.7875 1062.66 81.3625C1066.29 82.9375 1069.46 85.0875 1072.19 87.8125C1074.91 90.5375 1077.06 93.7125 1078.64 97.3375C1080.21 100.963 1081 104.85 1081 109C1081 113.1 1080.21 116.975 1078.64 120.625C1077.06 124.275 1074.91 127.463 1072.19 130.188C1069.46 132.913 1066.29 135.063 1062.66 136.638C1059.04 138.213 1055.15 139 1051 139Z" fill="#99CBA1"/>
<path d="M1131 233C1126.9 233 1123.03 232.213 1119.38 230.638C1115.73 229.063 1112.54 226.913 1109.81 224.188C1107.09 221.463 1104.94 218.275 1103.36 214.625C1101.79 210.975 1101 207.1 1101 203C1101 198.85 1101.79 194.963 1103.36 191.338C1104.94 187.713 1107.09 184.538 1109.81 181.812C1112.54 179.088 1115.73 176.938 1119.38 175.363C1123.03 173.788 1126.9 173 1131 173C1135.15 173 1139.04 173.788 1142.66 175.363C1146.29 176.938 1149.46 179.088 1152.19 181.812C1154.91 184.538 1157.06 187.713 1158.64 191.338C1160.21 194.963 1161 198.85 1161 203C1161 207.1 1160.21 210.975 1158.64 214.625C1157.06 218.275 1154.91 221.463 1152.19 224.188C1149.46 226.913 1146.29 229.063 1142.66 230.638C1139.04 232.213 1135.15 233 1131 233ZM1146.38 196.025L1151.55 194.225L1152.9 189.425C1151.2 186.775 1149.1 184.513 1146.6 182.638C1144.1 180.763 1141.28 179.325 1138.12 178.325L1133.25 181.55V186.8L1146.38 196.025ZM1115.7 196.025L1128.75 186.8V181.55L1123.95 178.325C1120.8 179.325 1117.98 180.763 1115.48 182.638C1112.98 184.513 1110.88 186.775 1109.18 189.425L1110.83 194.225L1115.7 196.025ZM1111.65 220.025L1116.15 219.5L1119.08 214.625L1114.43 200.3L1109.1 198.5L1105.5 201.425C1105.5 205.025 1105.9 208.312 1106.7 211.288C1107.5 214.263 1109.15 217.175 1111.65 220.025ZM1131 228.5C1132.35 228.5 1133.71 228.375 1135.09 228.125C1136.46 227.875 1137.9 227.55 1139.4 227.15L1141.88 221.75L1139.48 217.625H1122.6L1120.2 221.75L1122.68 227.15C1123.98 227.55 1125.35 227.875 1126.8 228.125C1128.25 228.375 1129.65 228.5 1131 228.5ZM1123.05 213.125H1138.65L1143.23 199.4L1131 190.625L1118.55 199.4L1123.05 213.125ZM1150.43 220.025C1152.88 217.175 1154.5 214.263 1155.3 211.288C1156.1 208.312 1156.5 205.025 1156.5 201.425L1152.9 198.95L1147.65 200.3L1143 214.625L1145.85 219.5L1150.43 220.025Z" fill="#99CBA1"/>
<path d="M1167 116C1160.31 116 1154.64 113.963 1149.99 109.888C1145.33 105.813 1143 100.85 1143 95C1143 89.15 1145.33 84.1875 1149.99 80.1125C1154.64 76.0375 1160.31 74 1167 74C1173.69 74 1179.36 76.0375 1184.01 80.1125C1188.67 84.1875 1191 89.15 1191 95C1191 100.85 1188.67 105.813 1184.01 109.888C1179.36 113.963 1173.69 116 1167 116ZM1167 111.5C1172.26 111.5 1176.71 109.9 1180.37 106.7C1184.03 103.5 1185.86 99.6 1185.86 95C1185.86 90.4 1184.03 86.5 1180.37 83.3C1176.71 80.1 1172.26 78.5 1167 78.5C1161.74 78.5 1157.29 80.1 1153.63 83.3C1149.97 86.5 1148.14 90.4 1148.14 95C1148.14 99.6 1149.97 103.5 1153.63 106.7C1157.29 109.9 1161.74 111.5 1167 111.5ZM1159.8 93.95C1160.49 93.95 1161.09 93.725 1161.6 93.275C1162.11 92.825 1162.37 92.3 1162.37 91.7C1162.37 91.1 1162.11 90.575 1161.6 90.125C1161.09 89.675 1160.49 89.45 1159.8 89.45C1159.11 89.45 1158.51 89.675 1158 90.125C1157.49 90.575 1157.23 91.1 1157.23 91.7C1157.23 92.3 1157.49 92.825 1158 93.275C1158.51 93.725 1159.11 93.95 1159.8 93.95ZM1174.2 93.95C1174.89 93.95 1175.49 93.725 1176 93.275C1176.51 92.825 1176.77 92.3 1176.77 91.7C1176.77 91.1 1176.51 90.575 1176 90.125C1175.49 89.675 1174.89 89.45 1174.2 89.45C1173.51 89.45 1172.91 89.675 1172.4 90.125C1171.89 90.575 1171.63 91.1 1171.63 91.7C1171.63 92.3 1171.89 92.825 1172.4 93.275C1172.91 93.725 1173.51 93.95 1174.2 93.95ZM1167 87.2C1167.69 87.2 1168.29 86.975 1168.8 86.525C1169.31 86.075 1169.57 85.55 1169.57 84.95C1169.57 84.35 1169.31 83.825 1168.8 83.375C1168.29 82.925 1167.69 82.7 1167 82.7C1166.31 82.7 1165.71 82.925 1165.2 83.375C1164.69 83.825 1164.43 84.35 1164.43 84.95C1164.43 85.55 1164.69 86.075 1165.2 86.525C1165.71 86.975 1166.31 87.2 1167 87.2ZM1164.43 134V130.4C1164.43 128.6 1163.77 127.125 1162.46 125.975C1161.14 124.825 1159.46 124.25 1157.4 124.25H1149.86V119.75H1184.14V124.25H1176.6C1174.54 124.25 1172.86 124.825 1171.54 125.975C1170.23 127.125 1169.57 128.6 1169.57 130.4V134H1164.43Z" fill="#99CBA1"/>
<path d="M563 111C556.314 111 550.643 108.963 545.986 104.888C541.329 100.813 539 95.85 539 90C539 84.15 541.329 79.1875 545.986 75.1125C550.643 71.0375 556.314 69 563 69C569.686 69 575.357 71.0375 580.014 75.1125C584.671 79.1875 587 84.15 587 90C587 95.85 584.671 100.813 580.014 104.888C575.357 108.963 569.686 111 563 111ZM563 106.5C568.257 106.5 572.714 104.9 576.371 101.7C580.029 98.5 581.857 94.6 581.857 90C581.857 85.4 580.029 81.5 576.371 78.3C572.714 75.1 568.257 73.5 563 73.5C557.743 73.5 553.286 75.1 549.629 78.3C545.971 81.5 544.143 85.4 544.143 90C544.143 94.6 545.971 98.5 549.629 101.7C553.286 104.9 557.743 106.5 563 106.5ZM555.8 88.95C556.486 88.95 557.086 88.725 557.6 88.275C558.114 87.825 558.371 87.3 558.371 86.7C558.371 86.1 558.114 85.575 557.6 85.125C557.086 84.675 556.486 84.45 555.8 84.45C555.114 84.45 554.514 84.675 554 85.125C553.486 85.575 553.229 86.1 553.229 86.7C553.229 87.3 553.486 87.825 554 88.275C554.514 88.725 555.114 88.95 555.8 88.95ZM570.2 88.95C570.886 88.95 571.486 88.725 572 88.275C572.514 87.825 572.771 87.3 572.771 86.7C572.771 86.1 572.514 85.575 572 85.125C571.486 84.675 570.886 84.45 570.2 84.45C569.514 84.45 568.914 84.675 568.4 85.125C567.886 85.575 567.629 86.1 567.629 86.7C567.629 87.3 567.886 87.825 568.4 88.275C568.914 88.725 569.514 88.95 570.2 88.95ZM563 82.2C563.686 82.2 564.286 81.975 564.8 81.525C565.314 81.075 565.571 80.55 565.571 79.95C565.571 79.35 565.314 78.825 564.8 78.375C564.286 77.925 563.686 77.7 563 77.7C562.314 77.7 561.714 77.925 561.2 78.375C560.686 78.825 560.429 79.35 560.429 79.95C560.429 80.55 560.686 81.075 561.2 81.525C561.714 81.975 562.314 82.2 563 82.2ZM560.429 129V125.4C560.429 123.6 559.771 122.125 558.457 120.975C557.143 119.825 555.457 119.25 553.4 119.25H545.857V114.75H580.143V119.25H572.6C570.543 119.25 568.857 119.825 567.543 120.975C566.229 122.125 565.571 123.6 565.571 125.4V129H560.429Z" fill="#99CBA1"/>
<path d="M1235.19 197C1231.98 197 1229.26 196.695 1227.02 196.084C1224.78 195.474 1223.31 194.812 1222.59 194.1C1221.83 193.388 1221.21 191.938 1220.73 189.75C1220.24 187.562 1220 184.866 1220 181.661C1220 175.81 1221.04 170.162 1223.13 164.718C1225.21 159.275 1228.17 154.568 1231.98 150.6C1235.49 146.682 1240.05 143.77 1245.64 141.862C1251.24 139.954 1257.11 139 1263.27 139C1266.43 139 1269.13 139.267 1271.4 139.801C1273.66 140.336 1275.13 140.908 1275.79 141.518C1276.5 142.078 1277.05 143.401 1277.43 145.487C1277.81 147.573 1278 150.396 1278 153.958C1278 160.012 1277 165.761 1274.99 171.205C1272.98 176.649 1270.11 181.254 1266.4 185.018C1262.58 188.987 1257.9 191.976 1252.36 193.986C1246.81 195.995 1241.09 197 1235.19 197ZM1224.35 183.416C1225.98 178.939 1228.14 174.652 1230.84 170.557C1233.53 166.461 1236.71 162.582 1240.38 158.918C1243.28 155.866 1246.74 153.106 1250.76 150.638C1254.77 148.171 1259.46 145.716 1264.8 143.274C1259.4 143.019 1254 143.884 1248.58 145.868C1243.16 147.853 1238.75 150.549 1235.34 153.958C1231.98 157.468 1229.27 161.869 1227.21 167.161C1225.15 172.452 1224.2 177.87 1224.35 183.416ZM1233.66 192.65C1239.71 192.396 1245.35 191.289 1250.56 189.33C1255.78 187.371 1259.96 184.815 1263.12 181.661C1266.48 178.15 1269.11 173.736 1271.02 168.42C1272.92 163.103 1273.83 157.672 1273.73 152.126C1271.54 157.468 1269.16 162.086 1266.59 165.978C1264.02 169.87 1261.19 173.418 1258.08 176.624C1255.23 179.676 1251.84 182.436 1247.89 184.904C1243.95 187.371 1239.21 189.954 1233.66 192.65ZM1227.56 189.445C1232.29 188.122 1237.04 186.023 1241.83 183.149C1246.61 180.274 1250.91 177.005 1254.72 173.342C1258.34 169.577 1261.55 165.342 1264.38 160.636C1267.2 155.929 1269.35 151.109 1270.83 146.174C1265.89 147.649 1261.05 149.824 1256.29 152.699C1251.53 155.573 1247.32 158.766 1243.66 162.276C1240.25 165.787 1237.08 169.946 1234.16 174.754C1231.23 179.562 1229.03 184.459 1227.56 189.445Z" fill="#99CBA1"/>
<path d="M1214.58 259.75H1224.85C1224.5 257.35 1223.8 255.088 1222.75 252.963C1221.7 250.838 1220.4 249 1218.85 247.45C1217.7 249.2 1216.73 251.1 1215.93 253.15C1215.12 255.2 1214.68 257.4 1214.58 259.75ZM1255.15 259.75H1265.43C1265.33 257.4 1264.88 255.2 1264.08 253.15C1263.28 251.1 1262.3 249.2 1261.15 247.45C1259.45 249.15 1258.11 251.025 1257.14 253.075C1256.16 255.125 1255.5 257.35 1255.15 259.75ZM1218.85 276.475C1220.55 274.775 1221.89 272.913 1222.86 270.888C1223.84 268.863 1224.5 266.65 1224.85 264.25H1214.58C1214.68 266.6 1215.12 268.788 1215.93 270.812C1216.73 272.838 1217.7 274.725 1218.85 276.475ZM1261.15 276.475C1262.3 274.725 1263.28 272.838 1264.08 270.812C1264.88 268.788 1265.33 266.6 1265.43 264.25H1255.15C1255.5 266.65 1256.16 268.863 1257.14 270.888C1258.11 272.913 1259.45 274.775 1261.15 276.475ZM1229.43 259.75H1237.75V236.575C1234.65 236.925 1231.76 237.725 1229.09 238.975C1226.41 240.225 1224 241.9 1221.85 244C1223.9 246.05 1225.58 248.425 1226.88 251.125C1228.18 253.825 1229.03 256.7 1229.43 259.75ZM1242.25 259.75H1250.58C1250.98 256.7 1251.84 253.825 1253.16 251.125C1254.49 248.425 1256.18 246.05 1258.23 244C1256.08 241.9 1253.65 240.225 1250.95 238.975C1248.25 237.725 1245.35 236.925 1242.25 236.575V259.75ZM1237.75 287.425V264.25H1229.43C1229.03 267.3 1228.18 270.163 1226.88 272.838C1225.58 275.513 1223.9 277.875 1221.85 279.925C1224 282.025 1226.35 283.713 1228.9 284.988C1231.45 286.263 1234.4 287.075 1237.75 287.425ZM1242.25 287.425C1245.6 287.075 1248.56 286.263 1251.14 284.988C1253.71 283.713 1256.08 282.025 1258.23 279.925C1256.18 277.875 1254.49 275.513 1253.16 272.838C1251.84 270.163 1250.98 267.3 1250.58 264.25H1242.25V287.425ZM1240 292C1235.85 292 1231.95 291.213 1228.3 289.638C1224.65 288.063 1221.48 285.925 1218.78 283.225C1216.08 280.525 1213.94 277.35 1212.36 273.7C1210.79 270.05 1210 266.15 1210 262C1210 257.85 1210.79 253.95 1212.36 250.3C1213.94 246.65 1216.08 243.475 1218.78 240.775C1221.48 238.075 1224.65 235.938 1228.3 234.363C1231.95 232.788 1235.85 232 1240 232C1244.15 232 1248.05 232.788 1251.7 234.363C1255.35 235.938 1258.53 238.075 1261.23 240.775C1263.93 243.475 1266.06 246.65 1267.64 250.3C1269.21 253.95 1270 257.85 1270 262C1270 266.15 1269.21 270.05 1267.64 273.7C1266.06 277.35 1263.93 280.525 1261.23 283.225C1258.53 285.925 1255.35 288.063 1251.7 289.638C1248.05 291.213 1244.15 292 1240 292Z" fill="#99CBA1"/>
<path d="M1312.23 219.176L1309 216.045L1322.06 203.369C1323.7 201.772 1324.88 199.772 1325.58 197.369C1326.28 194.966 1326.62 191.605 1326.62 187.285C1326.62 184.519 1327.25 181.801 1328.5 179.131C1329.75 176.461 1331.65 173.888 1334.2 171.412C1338.6 167.141 1343.43 164.714 1348.68 164.131C1353.94 163.549 1358.26 164.908 1361.65 168.208C1365.05 171.509 1366.45 175.732 1365.85 180.877C1365.25 186.023 1362.75 190.731 1358.35 195.003C1355.8 197.478 1353.15 199.298 1350.4 200.463C1347.65 201.628 1344.85 202.211 1342 202.211C1337.55 202.211 1334.06 202.526 1331.54 203.157C1329.01 203.788 1326.93 204.905 1325.28 206.507L1312.23 219.176ZM1333.98 195.003C1336.43 197.381 1339.75 198.267 1343.95 197.66C1348.15 197.053 1351.93 195.124 1355.28 191.872C1358.62 188.64 1360.62 185.016 1361.27 181.002C1361.92 176.987 1361.03 173.791 1358.58 171.412C1356.12 169.034 1352.81 168.148 1348.64 168.755C1344.46 169.361 1340.7 171.291 1337.35 174.543C1334 177.795 1331.99 181.426 1331.31 185.434C1330.64 189.443 1331.53 192.633 1333.98 195.003ZM1358.2 227.84C1355.2 227.84 1352.65 226.821 1350.55 224.782C1348.45 222.743 1347.4 220.268 1347.4 217.355C1347.4 214.443 1348.45 211.967 1350.55 209.929C1352.65 207.89 1355.2 206.871 1358.2 206.871C1361.2 206.871 1363.75 207.89 1365.85 209.929C1367.95 211.967 1369 214.443 1369 217.355C1369 220.268 1367.95 222.743 1365.85 224.782C1363.75 226.821 1361.2 227.84 1358.2 227.84ZM1358.2 223.471C1360 223.471 1361.5 222.889 1362.7 221.724C1363.9 220.559 1364.5 219.103 1364.5 217.355C1364.5 215.608 1363.9 214.152 1362.7 212.987C1361.5 211.822 1360 211.239 1358.2 211.239C1356.4 211.239 1354.9 211.822 1353.7 212.987C1352.5 214.152 1351.9 215.608 1351.9 217.355C1351.9 219.103 1352.5 220.559 1353.7 221.724C1354.9 222.889 1356.4 223.471 1358.2 223.471Z" fill="#99CBA1"/>
<path d="M1252.52 78.9444L1237.98 64.4C1237.56 66.5778 1237.41 69.0796 1237.51 71.9056C1237.61 74.7315 1237.87 76.8963 1238.29 78.4C1239.79 78.8148 1242 79.113 1244.9 79.2944C1247.8 79.4759 1250.34 79.3593 1252.52 78.9444ZM1258.28 78.0889C1261.49 77.4667 1264.51 76.4296 1267.34 74.9778C1270.16 73.5259 1272.62 71.7611 1274.69 69.6833C1276.71 67.6648 1278.44 65.2944 1279.86 62.5722C1281.29 59.85 1282.36 56.7519 1283.09 53.2778L1263.72 33.9111C1260.46 34.637 1257.41 35.713 1254.58 37.1389C1251.76 38.5648 1249.33 40.2889 1247.31 42.3111C1245.29 44.3333 1243.59 46.7574 1242.22 49.5833C1240.84 52.4093 1239.74 55.4556 1238.91 58.7222L1258.28 78.0889ZM1252.29 67.9778L1249.02 64.7111L1269.71 44.0222L1272.98 47.2889L1252.29 67.9778ZM1284.02 47.6C1284.44 45.4222 1284.59 42.9204 1284.49 40.0944C1284.39 37.2685 1284.13 35.1037 1283.71 33.6C1282.21 33.1852 1280 32.887 1277.1 32.7056C1274.2 32.5241 1271.66 32.6407 1269.48 33.0556L1284.02 47.6ZM1246.69 84C1243.89 84 1241.39 83.8056 1239.18 83.4167C1236.98 83.0278 1235.59 82.5605 1235.02 82.015C1234.45 81.4198 1233.97 80.0204 1233.58 77.8167C1233.19 75.613 1233 73.1111 1233 70.3111C1233 63.8296 1233.93 57.8019 1235.8 52.2278C1237.67 46.6537 1240.31 42.1556 1243.73 38.7333C1247.16 35.3111 1251.65 32.6667 1257.22 30.8C1262.79 28.9333 1268.82 28 1275.31 28C1278.11 28 1280.61 28.1944 1282.82 28.5833C1285.02 28.9722 1286.41 29.4395 1286.98 29.985C1287.55 30.5802 1288.03 31.9796 1288.42 34.1833C1288.81 36.387 1289 38.8889 1289 41.6889C1289 48.1704 1288.07 54.1981 1286.2 59.7722C1284.33 65.3463 1281.69 69.8444 1278.27 73.2667C1274.84 76.6889 1270.35 79.3333 1264.77 81.2C1259.2 83.0667 1253.17 84 1246.69 84Z" fill="#99CBA1"/>
<path d="M701.522 115.944L686.978 101.4C686.563 103.578 686.407 106.08 686.511 108.906C686.615 111.731 686.874 113.896 687.289 115.4C688.793 115.815 690.996 116.113 693.9 116.294C696.804 116.476 699.344 116.359 701.522 115.944ZM707.278 115.089C710.493 114.467 713.513 113.43 716.339 111.978C719.165 110.526 721.617 108.761 723.694 106.683C725.713 104.665 727.435 102.294 728.861 99.5722C730.287 96.85 731.363 93.7519 732.089 90.2778L712.722 70.9111C709.456 71.637 706.409 72.713 703.583 74.1389C700.757 75.5648 698.333 77.2889 696.311 79.3111C694.289 81.3333 692.591 83.7574 691.217 86.5833C689.843 89.4093 688.741 92.4556 687.911 95.7222L707.278 115.089ZM701.289 104.978L698.022 101.711L718.711 81.0222L721.978 84.2889L701.289 104.978ZM733.022 84.6C733.437 82.4222 733.593 79.9204 733.489 77.0944C733.385 74.2685 733.126 72.1037 732.711 70.6C731.207 70.1852 729.004 69.887 726.1 69.7056C723.196 69.5241 720.656 69.6407 718.478 70.0556L733.022 84.6ZM695.689 121C692.889 121 690.387 120.806 688.183 120.417C685.98 120.028 684.593 119.561 684.022 119.015C683.452 118.42 682.972 117.02 682.583 114.817C682.194 112.613 682 110.111 682 107.311C682 100.83 682.933 94.8019 684.8 89.2278C686.667 83.6537 689.311 79.1556 692.733 75.7333C696.156 72.3111 700.652 69.6667 706.222 67.8C711.792 65.9333 717.822 65 724.311 65C727.111 65 729.613 65.1944 731.817 65.5833C734.02 65.9722 735.407 66.4395 735.978 66.985C736.548 67.5802 737.028 68.9796 737.417 71.1833C737.806 73.387 738 75.8889 738 78.6889C738 85.1704 737.067 91.1981 735.2 96.7722C733.333 102.346 730.689 106.844 727.267 110.267C723.844 113.689 719.346 116.333 713.772 118.2C708.198 120.067 702.17 121 695.689 121Z" fill="#99CBA1"/>
<path d="M381.55 235.575C383 230.725 385.712 226.638 389.688 223.312C393.662 219.988 398.35 218.075 403.75 217.575V222.75L381.55 235.575ZM419.725 248.1L408.25 241.35V217.575C410.3 217.825 412.287 218.25 414.212 218.85C416.137 219.45 417.975 220.325 419.725 221.475V248.1ZM429.175 253.725L424.225 250.8V225.075C426.575 227.475 428.375 230.238 429.625 233.363C430.875 236.488 431.5 239.7 431.5 243C431.5 244.95 431.3 246.788 430.9 248.513C430.5 250.238 429.925 251.975 429.175 253.725ZM417.7 265.725L394.225 252.15L406 245.25L427 257.625C425.8 259.275 424.412 260.812 422.837 262.238C421.262 263.663 419.55 264.825 417.7 265.725ZM406 268.5C401.7 268.5 397.725 267.538 394.075 265.613C390.425 263.688 387.4 261.025 385 257.625L389.875 254.775L412.15 267.75C411.15 268 410.125 268.188 409.075 268.313C408.025 268.438 407 268.5 406 268.5ZM382.825 253.65C381.925 251.75 381.3 249.825 380.95 247.875C380.6 245.925 380.45 243.85 380.5 241.65L403.75 228.075V241.35L382.825 253.65ZM406 273C410.15 273 414.05 272.213 417.7 270.638C421.35 269.063 424.525 266.925 427.225 264.225C429.925 261.525 432.062 258.35 433.637 254.7C435.212 251.05 436 247.15 436 243C436 238.85 435.212 234.95 433.637 231.3C432.062 227.65 429.925 224.475 427.225 221.775C424.525 219.075 421.35 216.938 417.7 215.363C414.05 213.788 410.15 213 406 213C401.85 213 397.95 213.788 394.3 215.363C390.65 216.938 387.475 219.075 384.775 221.775C382.075 224.475 379.937 227.65 378.362 231.3C376.787 234.95 376 238.85 376 243C376 247.15 376.787 251.05 378.362 254.7C379.937 258.35 382.075 261.525 384.775 264.225C387.475 266.925 390.65 269.063 394.3 270.638C397.95 272.213 401.85 273 406 273Z" fill="#99CBA1"/>
<path d="M354.875 163.2C352.325 161.35 350.35 158.975 348.95 156.075C347.55 153.175 346.85 150.15 346.85 147C346.85 143.85 347.55 140.812 348.95 137.888C350.35 134.963 352.325 132.575 354.875 130.725C356.775 133.025 358.187 135.562 359.112 138.338C360.037 141.113 360.5 144 360.5 147C360.5 150 360.037 152.875 359.112 155.625C358.187 158.375 356.775 160.9 354.875 163.2ZM335 172.5C331.9 172.5 328.938 172.013 326.112 171.038C323.287 170.063 320.675 168.55 318.275 166.5C321.225 164.1 323.512 161.188 325.137 157.763C326.762 154.338 327.575 150.75 327.575 147C327.575 143.25 326.762 139.65 325.137 136.2C323.512 132.75 321.225 129.825 318.275 127.425C320.675 125.425 323.287 123.938 326.112 122.963C328.938 121.988 331.9 121.5 335 121.5C338.1 121.5 341.062 121.988 343.887 122.963C346.712 123.938 349.325 125.425 351.725 127.425C348.775 129.825 346.475 132.75 344.825 136.2C343.175 139.65 342.35 143.25 342.35 147C342.35 150.75 343.175 154.338 344.825 157.763C346.475 161.188 348.775 164.1 351.725 166.5C349.325 168.55 346.712 170.063 343.887 171.038C341.062 172.013 338.1 172.5 335 172.5ZM315.05 163.2C313.15 160.9 311.75 158.375 310.85 155.625C309.95 152.875 309.5 150 309.5 147C309.5 144 309.95 141.113 310.85 138.338C311.75 135.562 313.15 133.025 315.05 130.725C317.6 132.575 319.575 134.963 320.975 137.888C322.375 140.812 323.075 143.85 323.075 147C323.075 150.15 322.375 153.175 320.975 156.075C319.575 158.975 317.6 161.35 315.05 163.2ZM335 177C339.1 177 342.975 176.213 346.625 174.638C350.275 173.063 353.462 170.913 356.188 168.188C358.912 165.463 361.062 162.275 362.637 158.625C364.212 154.975 365 151.1 365 147C365 142.85 364.212 138.963 362.637 135.338C361.062 131.713 358.912 128.538 356.188 125.812C353.462 123.088 350.275 120.938 346.625 119.363C342.975 117.788 339.1 117 335 117C330.85 117 326.962 117.788 323.337 119.363C319.712 120.938 316.537 123.088 313.812 125.812C311.087 128.538 308.937 131.713 307.362 135.338C305.787 138.963 305 142.85 305 147C305 151.1 305.787 154.975 307.362 158.625C308.937 162.275 311.087 165.463 313.812 168.188C316.537 170.913 319.712 173.063 323.337 174.638C326.962 176.213 330.85 177 335 177Z" fill="#99CBA1"/>
<path d="M256 246C260.1 246 263.975 245.213 267.625 243.638C271.275 242.063 274.462 239.913 277.188 237.188C279.912 234.463 282.062 231.275 283.637 227.625C285.212 223.975 286 220.1 286 216C286 211.85 285.212 207.963 283.637 204.338C282.062 200.713 279.912 197.538 277.188 194.812C274.462 192.088 271.275 189.938 267.625 188.363C263.975 186.788 260.1 186 256 186C251.85 186 247.962 186.788 244.337 188.363C240.712 189.938 237.537 192.088 234.812 194.812C232.087 197.538 229.937 200.713 228.362 204.338C226.787 207.963 226 211.85 226 216C226 220.1 226.787 223.975 228.362 227.625C229.937 231.275 232.087 234.463 234.812 237.188C237.537 239.913 240.712 242.063 244.337 243.638C247.962 245.213 251.85 246 256 246ZM240.625 209.025L235.45 207.225L234.1 202.425C235.8 199.775 237.9 197.513 240.4 195.638C242.9 193.763 245.725 192.325 248.875 191.325L253.75 194.55V199.8L240.625 209.025ZM271.3 209.025L258.25 199.8V194.55L263.05 191.325C266.2 192.325 269.025 193.763 271.525 195.638C274.025 197.513 276.125 199.775 277.825 202.425L276.175 207.225L271.3 209.025ZM275.35 233.025L270.85 232.5L267.925 227.625L272.575 213.3L277.9 211.5L281.5 214.425C281.5 218.025 281.1 221.312 280.3 224.288C279.5 227.263 277.85 230.175 275.35 233.025ZM256 241.5C254.65 241.5 253.287 241.375 251.912 241.125C250.537 240.875 249.1 240.55 247.6 240.15L245.125 234.75L247.525 230.625H264.4L266.8 234.75L264.325 240.15C263.025 240.55 261.65 240.875 260.2 241.125C258.75 241.375 257.35 241.5 256 241.5ZM263.95 226.125H248.35L243.775 212.4L256 203.625L268.45 212.4L263.95 226.125ZM236.575 233.025C234.125 230.175 232.5 227.263 231.7 224.288C230.9 221.312 230.5 218.025 230.5 214.425L234.1 211.95L239.35 213.3L244 227.625L241.15 232.5L236.575 233.025Z" fill="#99CBA1"/>
<path d="M220 129C226.686 129 232.357 126.963 237.014 122.888C241.671 118.813 244 113.85 244 108C244 102.15 241.671 97.1875 237.014 93.1125C232.357 89.0375 226.686 87 220 87C213.314 87 207.643 89.0375 202.986 93.1125C198.329 97.1875 196 102.15 196 108C196 113.85 198.329 118.813 202.986 122.888C207.643 126.963 213.314 129 220 129ZM220 124.5C214.743 124.5 210.286 122.9 206.629 119.7C202.971 116.5 201.143 112.6 201.143 108C201.143 103.4 202.971 99.5 206.629 96.3C210.286 93.1 214.743 91.5 220 91.5C225.257 91.5 229.714 93.1 233.371 96.3C237.029 99.5 238.857 103.4 238.857 108C238.857 112.6 237.029 116.5 233.371 119.7C229.714 122.9 225.257 124.5 220 124.5ZM227.2 106.95C226.514 106.95 225.914 106.725 225.4 106.275C224.886 105.825 224.629 105.3 224.629 104.7C224.629 104.1 224.886 103.575 225.4 103.125C225.914 102.675 226.514 102.45 227.2 102.45C227.886 102.45 228.486 102.675 229 103.125C229.514 103.575 229.771 104.1 229.771 104.7C229.771 105.3 229.514 105.825 229 106.275C228.486 106.725 227.886 106.95 227.2 106.95ZM212.8 106.95C212.114 106.95 211.514 106.725 211 106.275C210.486 105.825 210.229 105.3 210.229 104.7C210.229 104.1 210.486 103.575 211 103.125C211.514 102.675 212.114 102.45 212.8 102.45C213.486 102.45 214.086 102.675 214.6 103.125C215.114 103.575 215.371 104.1 215.371 104.7C215.371 105.3 215.114 105.825 214.6 106.275C214.086 106.725 213.486 106.95 212.8 106.95ZM220 100.2C219.314 100.2 218.714 99.975 218.2 99.525C217.686 99.075 217.429 98.55 217.429 97.95C217.429 97.35 217.686 96.825 218.2 96.375C218.714 95.925 219.314 95.7 220 95.7C220.686 95.7 221.286 95.925 221.8 96.375C222.314 96.825 222.571 97.35 222.571 97.95C222.571 98.55 222.314 99.075 221.8 99.525C221.286 99.975 220.686 100.2 220 100.2ZM222.571 147V143.4C222.571 141.6 223.229 140.125 224.543 138.975C225.857 137.825 227.543 137.25 229.6 137.25H237.143V132.75H202.857V137.25H210.4C212.457 137.25 214.143 137.825 215.457 138.975C216.771 140.125 217.429 141.6 217.429 143.4V147H222.571Z" fill="#99CBA1"/>
<path d="M144.813 147C148.018 147 150.74 146.695 152.979 146.084C155.218 145.474 156.693 144.812 157.405 144.1C158.168 143.388 158.792 141.938 159.275 139.75C159.758 137.562 160 134.866 160 131.661C160 125.81 158.957 120.162 156.871 114.718C154.785 109.275 151.834 104.568 148.018 100.6C144.508 96.6825 139.954 93.7697 134.358 91.8618C128.761 89.9539 122.885 89 116.729 89C113.575 89 110.865 89.2671 108.601 89.8013C106.337 90.3355 104.875 90.9079 104.213 91.5184C103.501 92.0781 102.954 93.4009 102.572 95.4868C102.191 97.5728 102 100.396 102 103.958C102 110.012 103.005 115.761 105.014 121.205C107.024 126.649 109.886 131.254 113.6 135.018C117.416 138.987 122.096 141.976 127.642 143.986C133.188 145.995 138.911 147 144.813 147ZM155.65 133.416C154.022 128.939 151.86 124.652 149.163 120.557C146.467 116.461 143.287 112.582 139.624 108.918C136.724 105.866 133.264 103.106 129.245 100.638C125.225 98.1706 120.545 95.7158 115.203 93.2737C120.596 93.0193 126.001 93.8842 131.42 95.8684C136.838 97.8526 141.252 100.549 144.661 103.958C148.018 107.468 150.728 111.869 152.788 117.161C154.849 122.452 155.803 127.87 155.65 133.416ZM146.339 142.65C140.285 142.396 134.65 141.289 129.436 139.33C124.221 137.371 120.036 134.815 116.882 131.661C113.524 128.15 110.891 123.736 108.983 118.42C107.075 113.103 106.172 107.672 106.274 102.126C108.461 107.468 110.84 112.086 113.409 115.978C115.979 119.87 118.815 123.418 121.918 126.624C124.768 129.676 128.164 132.436 132.107 134.904C136.05 137.371 140.794 139.954 146.339 142.65ZM152.445 139.445C147.713 138.122 142.956 136.023 138.174 133.149C133.391 130.274 129.092 127.005 125.276 123.342C121.664 119.577 118.446 115.342 115.622 110.636C112.799 105.929 110.649 101.109 109.174 96.1737C114.109 97.6491 118.955 99.8241 123.712 102.699C128.469 105.573 132.679 108.766 136.342 112.276C139.751 115.787 142.918 119.946 145.843 124.754C148.769 129.562 150.969 134.459 152.445 139.445Z" fill="#99CBA1"/>
<path d="M523.813 320C527.018 320 529.74 319.695 531.979 319.084C534.218 318.474 535.693 317.812 536.405 317.1C537.168 316.388 537.792 314.938 538.275 312.75C538.758 310.562 539 307.866 539 304.661C539 298.81 537.957 293.162 535.871 287.718C533.785 282.275 530.834 277.568 527.018 273.6C523.508 269.682 518.954 266.77 513.358 264.862C507.761 262.954 501.885 262 495.729 262C492.575 262 489.865 262.267 487.601 262.801C485.337 263.336 483.875 263.908 483.213 264.518C482.501 265.078 481.954 266.401 481.572 268.487C481.191 270.573 481 273.396 481 276.958C481 283.012 482.005 288.761 484.014 294.205C486.024 299.649 488.886 304.254 492.6 308.018C496.416 311.987 501.096 314.976 506.642 316.986C512.188 318.995 517.911 320 523.813 320ZM534.65 306.416C533.022 301.939 530.86 297.652 528.163 293.557C525.467 289.461 522.287 285.582 518.624 281.918C515.724 278.866 512.264 276.106 508.245 273.638C504.225 271.171 499.545 268.716 494.203 266.274C499.596 266.019 505.001 266.884 510.42 268.868C515.838 270.853 520.252 273.549 523.661 276.958C527.018 280.468 529.728 284.869 531.788 290.161C533.849 295.452 534.803 300.87 534.65 306.416ZM525.339 315.65C519.285 315.396 513.65 314.289 508.436 312.33C503.221 310.371 499.036 307.815 495.882 304.661C492.524 301.15 489.891 296.736 487.983 291.42C486.075 286.103 485.172 280.672 485.274 275.126C487.461 280.468 489.84 285.086 492.409 288.978C494.979 292.87 497.815 296.418 500.918 299.624C503.768 302.676 507.164 305.436 511.107 307.904C515.05 310.371 519.794 312.954 525.339 315.65ZM531.445 312.445C526.713 311.122 521.956 309.023 517.174 306.149C512.391 303.274 508.092 300.005 504.276 296.342C500.664 292.577 497.446 288.342 494.622 283.636C491.799 278.929 489.649 274.109 488.174 269.174C493.109 270.649 497.955 272.824 502.712 275.699C507.469 278.573 511.679 281.766 515.342 285.276C518.751 288.787 521.918 292.946 524.843 297.754C527.769 302.562 529.969 307.459 531.445 312.445Z" fill="#99CBA1"/>
<path d="M172.425 272.75H162.15C162.5 270.35 163.2 268.088 164.25 265.963C165.3 263.838 166.6 262 168.15 260.45C169.3 262.2 170.275 264.1 171.075 266.15C171.875 268.2 172.325 270.4 172.425 272.75ZM131.85 272.75H121.575C121.675 270.4 122.125 268.2 122.925 266.15C123.725 264.1 124.7 262.2 125.85 260.45C127.55 262.15 128.887 264.025 129.862 266.075C130.837 268.125 131.5 270.35 131.85 272.75ZM168.15 289.475C166.45 287.775 165.112 285.913 164.137 283.888C163.162 281.863 162.5 279.65 162.15 277.25H172.425C172.325 279.6 171.875 281.788 171.075 283.812C170.275 285.838 169.3 287.725 168.15 289.475ZM125.85 289.475C124.7 287.725 123.725 285.838 122.925 283.812C122.125 281.788 121.675 279.6 121.575 277.25H131.85C131.5 279.65 130.837 281.863 129.862 283.888C128.887 285.913 127.55 287.775 125.85 289.475ZM157.575 272.75H149.25V249.575C152.35 249.925 155.237 250.725 157.912 251.975C160.587 253.225 163 254.9 165.15 257C163.1 259.05 161.425 261.425 160.125 264.125C158.825 266.825 157.975 269.7 157.575 272.75ZM144.75 272.75H136.425C136.025 269.7 135.162 266.825 133.837 264.125C132.512 261.425 130.825 259.05 128.775 257C130.925 254.9 133.35 253.225 136.05 251.975C138.75 250.725 141.65 249.925 144.75 249.575V272.75ZM149.25 300.425V277.25H157.575C157.975 280.3 158.825 283.163 160.125 285.838C161.425 288.513 163.1 290.875 165.15 292.925C163 295.025 160.65 296.713 158.1 297.988C155.55 299.263 152.6 300.075 149.25 300.425ZM144.75 300.425C141.4 300.075 138.438 299.263 135.862 297.988C133.287 296.713 130.925 295.025 128.775 292.925C130.825 290.875 132.512 288.513 133.837 285.838C135.162 283.163 136.025 280.3 136.425 277.25H144.75V300.425ZM147 305C151.15 305 155.05 304.213 158.7 302.638C162.35 301.063 165.525 298.925 168.225 296.225C170.925 293.525 173.062 290.35 174.637 286.7C176.212 283.05 177 279.15 177 275C177 270.85 176.212 266.95 174.637 263.3C173.062 259.65 170.925 256.475 168.225 253.775C165.525 251.075 162.35 248.938 158.7 247.363C155.05 245.788 151.15 245 147 245C142.85 245 138.95 245.788 135.3 247.363C131.65 248.938 128.475 251.075 125.775 253.775C123.075 256.475 120.937 259.65 119.362 263.3C117.787 266.95 117 270.85 117 275C117 279.15 117.787 283.05 119.362 286.7C120.937 290.35 123.075 293.525 125.775 296.225C128.475 298.925 131.65 301.063 135.3 302.638C138.95 304.213 142.85 305 147 305Z" fill="#99CBA1"/>
<path d="M56.775 234.176L60 231.045L46.9431 218.369C45.2977 216.772 44.125 214.772 43.425 212.369C42.725 209.966 42.375 206.605 42.375 202.285C42.375 199.519 41.75 196.801 40.5 194.131C39.25 191.461 37.35 188.888 34.8 186.412C30.4 182.141 25.5728 179.714 20.3186 179.131C15.0642 178.549 10.7414 179.908 7.35 183.208C3.95 186.509 2.55 190.732 3.15 195.877C3.75 201.023 6.25 205.731 10.65 210.003C13.2 212.478 15.8503 214.298 18.6009 215.463C21.3515 216.628 24.1512 217.211 27 217.211C31.45 217.211 34.9375 217.526 37.4625 218.157C39.9875 218.788 42.075 219.905 43.725 221.507L56.775 234.176ZM35.025 210.003C32.575 212.381 29.25 213.267 25.05 212.66C20.85 212.053 17.075 210.124 13.725 206.872C10.3812 203.64 8.38275 200.016 7.72965 196.002C7.07655 191.987 7.975 188.791 10.425 186.412C12.875 184.034 16.1875 183.148 20.3625 183.755C24.5375 184.361 28.3 186.291 31.65 189.543C35 192.795 37.0125 196.426 37.6875 200.434C38.3625 204.443 37.475 207.633 35.025 210.003ZM10.8 242.84C13.8 242.84 16.35 241.821 18.45 239.782C20.55 237.743 21.6 235.268 21.6 232.355C21.6 229.443 20.55 226.967 18.45 224.929C16.35 222.89 13.8 221.871 10.8 221.871C7.8 221.871 5.25 222.89 3.15 224.929C1.05 226.967 -3.8147e-06 229.443 -3.8147e-06 232.355C-3.8147e-06 235.268 1.05 237.743 3.15 239.782C5.25 241.821 7.8 242.84 10.8 242.84ZM10.8 238.471C9 238.471 7.5 237.889 6.3 236.724C5.1 235.559 4.5 234.103 4.5 232.355C4.5 230.608 5.1 229.152 6.3 227.987C7.5 226.822 9 226.239 10.8 226.239C12.6 226.239 14.1 226.822 15.3 227.987C16.5 229.152 17.1 230.608 17.1 232.355C17.1 234.103 16.5 235.559 15.3 236.724C14.1 237.889 12.6 238.471 10.8 238.471Z" fill="#99CBA1"/>
<path d="M36.4778 50.9444L51.0222 36.4C51.437 38.5778 51.5926 41.0796 51.4889 43.9056C51.3852 46.7315 51.1259 48.8963 50.7111 50.4C49.2074 50.8148 47.0037 51.113 44.1 51.2944C41.1963 51.4759 38.6556 51.3593 36.4778 50.9444ZM30.7222 50.0889C27.5074 49.4667 24.487 48.4296 21.6611 46.9778C18.8352 45.5259 16.3833 43.7611 14.3055 41.6833C12.287 39.6648 10.5648 37.2944 9.13889 34.5722C7.71296 31.85 6.63704 28.7519 5.91111 25.2778L25.2778 5.91111C28.5444 6.63704 31.5907 7.71296 34.4167 9.13889C37.2426 10.5648 39.6667 12.2889 41.6889 14.3111C43.7111 16.3333 45.4093 18.7574 46.7833 21.5833C48.1574 24.4093 49.2593 27.4556 50.0889 30.7222L30.7222 50.0889ZM36.7111 39.9778L39.9778 36.7111L19.2889 16.0222L16.0222 19.2889L36.7111 39.9778ZM4.97778 19.6C4.56296 17.4222 4.40741 14.9204 4.51111 12.0944C4.61481 9.26852 4.87407 7.1037 5.28889 5.6C6.79259 5.18519 8.9963 4.88704 11.9 4.70556C14.8037 4.52407 17.3444 4.64074 19.5222 5.05556L4.97778 19.6ZM42.3111 56C45.1111 56 47.613 55.8056 49.8167 55.4167C52.0204 55.0278 53.4074 54.5605 53.9778 54.015C54.5481 53.4198 55.0278 52.0204 55.4167 49.8167C55.8056 47.613 56 45.1111 56 42.3111C56 35.8296 55.0667 29.8019 53.2 24.2278C51.3333 18.6537 48.6889 14.1556 45.2667 10.7333C41.8444 7.31111 37.3483 4.66667 31.7782 2.8C26.2081 0.933333 20.1783 0 13.6889 0C10.8889 0 8.38704 0.194444 6.18333 0.583333C3.97963 0.972222 2.59259 1.43946 2.02222 1.98504C1.45185 2.5802 0.972221 3.97963 0.583332 6.18333C0.194443 8.38704 -3.8147e-06 10.8889 -3.8147e-06 13.6889C-3.8147e-06 20.1704 0.933331 26.1981 2.8 31.7722C4.66666 37.3463 7.31111 41.8444 10.7333 45.2667C14.1556 48.6889 18.6537 51.3333 24.2278 53.2C29.8019 55.0667 35.8296 56 42.3111 56Z" fill="#99CBA1"/>
<path d="M1147.13 284.586L1144 281.455L1147.35 278.101L1135.65 266.398L1132.3 269.752L1129.09 266.547L1131.33 264.236C1132.47 263.093 1133.89 262.534 1135.57 262.559C1137.26 262.584 1138.68 263.168 1139.82 264.311L1149.44 273.926C1150.58 275.069 1151.15 276.473 1151.15 278.138C1151.15 279.803 1150.58 281.206 1149.44 282.349L1147.13 284.586ZM1111.35 320.439C1110.21 321.582 1108.8 322.154 1107.14 322.154C1105.47 322.154 1104.07 321.582 1102.93 320.439L1092.27 309.78C1091.42 308.916 1091 307.856 1091 306.598C1091 305.34 1091.42 304.289 1092.27 303.444L1095.55 300.164L1098.75 303.295L1095.4 306.649L1107.1 318.352L1110.45 314.998L1113.59 318.203L1111.35 320.439ZM1140.94 297.481L1147.28 291.145L1122.6 266.472L1116.27 272.808L1140.94 297.481ZM1120.07 318.352L1126.48 311.942L1101.81 287.269L1095.4 293.679L1120.07 318.352ZM1120.74 299.866L1128.87 291.741L1122.01 284.884L1113.88 293.009L1120.74 299.866ZM1123.2 321.483C1122.36 322.328 1121.32 322.75 1120.07 322.75C1118.83 322.75 1117.78 322.328 1116.94 321.483L1092.27 296.81C1091.42 295.969 1091 294.926 1091 293.682C1091 292.438 1091.42 291.394 1092.27 290.549L1098.6 284.138C1099.47 283.294 1100.53 282.871 1101.79 282.871C1103.04 282.871 1104.09 283.294 1104.94 284.138L1110.68 289.878L1118.88 281.679L1113.14 275.939C1112.29 275.097 1111.87 274.055 1111.87 272.811C1111.87 271.567 1112.29 270.522 1113.14 269.678L1119.47 263.267C1120.34 262.422 1121.4 262 1122.66 262C1123.91 262 1124.97 262.422 1125.81 263.267L1150.48 287.94C1151.33 288.803 1151.75 289.864 1151.75 291.122C1151.75 292.38 1151.33 293.431 1150.48 294.276L1144.07 300.612C1143.23 301.456 1142.19 301.879 1140.94 301.879C1139.7 301.879 1138.66 301.456 1137.81 300.612L1132.07 294.872L1123.87 303.071L1129.61 308.811C1130.46 309.675 1130.88 310.735 1130.88 311.993C1130.88 313.251 1130.46 314.302 1129.61 315.147L1123.2 321.483Z" fill="#99CBA1"/>
<path d="M320.129 284.586L316.998 281.455L320.352 278.101L308.649 266.398L305.295 269.752L302.09 266.547L304.326 264.236C305.469 263.093 306.885 262.534 308.575 262.559C310.264 262.584 311.681 263.168 312.824 264.311L322.439 273.926C323.582 275.069 324.154 276.473 324.154 278.138C324.154 279.803 323.582 281.206 322.439 282.349L320.129 284.586ZM284.349 320.439C283.206 321.582 281.803 322.154 280.138 322.154C278.473 322.154 277.069 321.582 275.926 320.439L265.267 309.78C264.422 308.916 264 307.856 264 306.598C264 305.34 264.422 304.289 265.267 303.444L268.547 300.164L271.752 303.295L268.398 306.649L280.101 318.352L283.455 314.998L286.586 318.203L284.349 320.439ZM313.942 297.481L320.278 291.145L295.605 266.472L289.269 272.808L313.942 297.481ZM293.071 318.352L299.481 311.942L274.808 287.269L268.398 293.679L293.071 318.352ZM293.741 299.866L301.866 291.741L295.009 284.884L286.884 293.009L293.741 299.866ZM296.201 321.483C295.36 322.328 294.317 322.75 293.073 322.75C291.829 322.75 290.785 322.328 289.94 321.483L265.267 296.81C264.422 295.969 264 294.926 264 293.682C264 292.438 264.422 291.394 265.267 290.549L271.603 284.138C272.467 283.294 273.527 282.871 274.785 282.871C276.043 282.871 277.094 283.294 277.939 284.138L283.679 289.878L291.878 281.679L286.138 275.939C285.294 275.097 284.871 274.055 284.871 272.811C284.871 271.567 285.294 270.522 286.138 269.678L292.474 263.267C293.338 262.422 294.398 262 295.656 262C296.914 262 297.965 262.422 298.81 263.267L323.483 287.94C324.328 288.803 324.75 289.864 324.75 291.122C324.75 292.38 324.328 293.431 323.483 294.276L317.072 300.612C316.231 301.456 315.188 301.879 313.944 301.879C312.7 301.879 311.656 301.456 310.811 300.612L305.071 294.872L296.872 303.071L302.612 308.811C303.456 309.675 303.879 310.735 303.879 311.993C303.879 313.251 303.456 314.302 302.612 315.147L296.201 321.483Z" fill="#99CBA1"/>
<path d="M988 323C982.95 323 978.688 320.876 975.213 316.629C971.738 312.382 970 307.172 970 301C970 300.328 970.025 299.625 970.075 298.892C970.125 298.158 970.2 297.517 970.3 296.967C970.05 297.089 969.75 297.181 969.4 297.242C969.05 297.303 968.75 297.333 968.5 297.333C966.3 297.333 964.5 296.478 963.1 294.767C961.7 293.056 961 290.856 961 288.167C961 285.478 961.7 283.278 963.1 281.567C964.5 279.856 966.3 279 968.5 279C970.05 279 971.475 279.565 972.775 280.696C974.075 281.826 975 283.247 975.55 284.958C977.1 283.247 978.963 281.826 981.138 280.696C983.312 279.565 985.625 279 988.075 279H1021V290H1006V301C1006 307.172 1004.26 312.382 1000.79 316.629C997.312 320.876 993.05 323 988 323ZM968.5 291.833C969.4 291.833 970.125 291.497 970.675 290.825C971.225 290.153 971.5 289.267 971.5 288.167C971.5 287.067 971.225 286.181 970.675 285.508C970.125 284.836 969.4 284.5 968.5 284.5C967.6 284.5 966.875 284.836 966.325 285.508C965.775 286.181 965.5 287.067 965.5 288.167C965.5 289.267 965.775 290.153 966.325 290.825C966.875 291.497 967.6 291.833 968.5 291.833ZM988 313.833C991 313.833 993.5 312.611 995.5 310.167C997.5 307.722 998.5 304.667 998.5 301C998.5 297.333 997.5 294.278 995.5 291.833C993.5 289.389 991 288.167 988 288.167C985 288.167 982.5 289.389 980.5 291.833C978.5 294.278 977.5 297.333 977.5 301C977.5 304.667 978.5 307.722 980.5 310.167C982.5 312.611 985 313.833 988 313.833ZM988 308.333C989.65 308.333 991.063 307.615 992.238 306.179C993.413 304.743 994 303.017 994 301C994 298.983 993.413 297.257 992.238 295.821C991.063 294.385 989.65 293.667 988 293.667C986.35 293.667 984.938 294.385 983.763 295.821C982.588 297.257 982 298.983 982 301C982 303.017 982.588 304.743 983.763 306.179C984.938 307.615 986.35 308.333 988 308.333Z" fill="#99CBA1"/>
<path d="M27 319C21.95 319 17.6875 316.876 14.2125 312.629C10.7375 308.382 9 303.172 9 297C9 296.328 9.025 295.625 9.075 294.892C9.125 294.158 9.2 293.517 9.3 292.967C9.05 293.089 8.75 293.181 8.4 293.242C8.05 293.303 7.75 293.333 7.5 293.333C5.3 293.333 3.5 292.478 2.1 290.767C0.7 289.056 0 286.856 0 284.167C0 281.478 0.7 279.278 2.1 277.567C3.5 275.856 5.3 275 7.5 275C9.05 275 10.475 275.565 11.775 276.696C13.075 277.826 14 279.247 14.55 280.958C16.1 279.247 17.9625 277.826 20.1375 276.696C22.3125 275.565 24.625 275 27.075 275H60V286H45V297C45 303.172 43.2625 308.382 39.7875 312.629C36.3125 316.876 32.05 319 27 319ZM7.5 287.833C8.4 287.833 9.125 287.497 9.675 286.825C10.225 286.153 10.5 285.267 10.5 284.167C10.5 283.067 10.225 282.181 9.675 281.508C9.125 280.836 8.4 280.5 7.5 280.5C6.6 280.5 5.875 280.836 5.325 281.508C4.775 282.181 4.5 283.067 4.5 284.167C4.5 285.267 4.775 286.153 5.325 286.825C5.875 287.497 6.6 287.833 7.5 287.833ZM27 309.833C30 309.833 32.5 308.611 34.5 306.167C36.5 303.722 37.5 300.667 37.5 297C37.5 293.333 36.5 290.278 34.5 287.833C32.5 285.389 30 284.167 27 284.167C24 284.167 21.5 285.389 19.5 287.833C17.5 290.278 16.5 293.333 16.5 297C16.5 300.667 17.5 303.722 19.5 306.167C21.5 308.611 24 309.833 27 309.833ZM27 304.333C28.65 304.333 30.0625 303.615 31.2375 302.179C32.4125 300.743 33 299.017 33 297C33 294.983 32.4125 293.257 31.2375 291.821C30.0625 290.385 28.65 289.667 27 289.667C25.35 289.667 23.9375 290.385 22.7625 291.821C21.5875 293.257 21 294.983 21 297C21 299.017 21.5875 300.743 22.7625 302.179C23.9375 303.615 25.35 304.333 27 304.333Z" fill="#99CBA1"/>
<path d="M1355.29 84C1354.26 84 1353.43 83.7148 1352.8 83.1444C1352.17 82.5741 1351.86 81.8222 1351.86 80.8889V73.5H1386.14V80.8889C1386.14 81.8222 1385.83 82.5741 1385.2 83.1444C1384.57 83.7148 1383.74 84 1382.71 84H1355.29ZM1393 43.1667V53.0444C1393 53.4074 1392.97 53.6407 1392.91 53.7444L1390.26 65.2556C1390.03 66.137 1389.57 66.837 1388.89 67.3556C1388.2 67.8741 1387.37 68.1333 1386.4 68.1333H1351.6C1350.63 68.1333 1349.8 67.8741 1349.11 67.3556C1348.43 66.837 1347.97 66.137 1347.74 65.2556L1345.09 53.7444C1345.03 53.6407 1345 53.4074 1345 53.0444V32.6667C1345 31.3185 1345.49 30.2037 1346.46 29.3222C1347.43 28.4407 1348.66 28 1350.14 28H1381.86C1383.34 28 1384.57 28.4407 1385.54 29.3222C1386.51 30.2037 1387 31.3185 1387 32.6667V43.1667C1387 42.337 1387.27 41.6759 1387.81 41.1833C1388.36 40.6907 1389.09 40.4444 1390 40.4444C1390.91 40.4444 1391.64 40.6907 1392.19 41.1833C1392.73 41.6759 1393 42.337 1393 43.1667ZM1352.63 63.4667H1385.37L1387.86 52.0333V49.1556H1381.86V32.6667H1350.14V52.0333L1352.63 63.4667ZM1356.57 49.1556H1375.43V38.7333H1356.57V49.1556Z" fill="#99CBA1"/>
<path d="M10.2857 146C9.25714 146 8.42857 145.715 7.8 145.144C7.17143 144.574 6.85714 143.822 6.85714 142.889V135.5H41.1429V142.889C41.1429 143.822 40.8286 144.574 40.2 145.144C39.5714 145.715 38.7429 146 37.7143 146H10.2857ZM48 105.167V115.044C48 115.407 47.9714 115.641 47.9143 115.744L45.2571 127.256C45.0286 128.137 44.5714 128.837 43.8857 129.356C43.2 129.874 42.3714 130.133 41.4 130.133H6.6C5.62857 130.133 4.8 129.874 4.11429 129.356C3.42857 128.837 2.97143 128.137 2.74286 127.256L0.0857143 115.744C0.0285714 115.641 0 115.407 0 115.044V94.6667C0 93.3185 0.485714 92.2037 1.45714 91.3222C2.42857 90.4407 3.65714 90 5.14286 90H36.8571C38.3429 90 39.5714 90.4407 40.5429 91.3222C41.5143 92.2037 42 93.3185 42 94.6667V105.167C42 104.337 42.2714 103.676 42.8143 103.183C43.3571 102.691 44.0857 102.444 45 102.444C45.9143 102.444 46.6429 102.691 47.1857 103.183C47.7286 103.676 48 104.337 48 105.167ZM7.62857 125.467H40.3714L42.8571 114.033V111.156H36.8571V94.6667H5.14286V114.033L7.62857 125.467ZM11.5714 111.156H30.4286V100.733H11.5714V111.156Z" fill="#99CBA1"/>
</svg>
