<svg width="1531" height="325" viewBox="0 0 1531 325" fill="none" xmlns="http://www.w3.org/2000/svg">
<path d="M935.45 106.575C934 101.725 931.288 97.6375 927.313 94.3125C923.338 90.9875 918.65 89.075 913.25 88.575V93.75L935.45 106.575ZM897.275 119.1L908.75 112.35V88.575C906.7 88.825 904.713 89.25 902.788 89.85C900.863 90.45 899.025 91.325 897.275 92.475V119.1ZM887.825 124.725L892.775 121.8V96.075C890.425 98.475 888.625 101.238 887.375 104.363C886.125 107.488 885.5 110.7 885.5 114C885.5 115.95 885.7 117.788 886.1 119.513C886.5 121.238 887.075 122.975 887.825 124.725ZM899.3 136.725L922.775 123.15L911 116.25L890 128.625C891.2 130.275 892.588 131.813 894.163 133.238C895.738 134.663 897.45 135.825 899.3 136.725ZM911 139.5C915.3 139.5 919.275 138.538 922.925 136.613C926.575 134.688 929.6 132.025 932 128.625L927.125 125.775L904.85 138.75C905.85 139 906.875 139.188 907.925 139.313C908.975 139.438 910 139.5 911 139.5ZM934.175 124.65C935.075 122.75 935.7 120.825 936.05 118.875C936.4 116.925 936.55 114.85 936.5 112.65L913.25 99.075V112.35L934.175 124.65ZM911 144C906.85 144 902.95 143.213 899.3 141.638C895.65 140.063 892.475 137.925 889.775 135.225C887.075 132.525 884.938 129.35 883.363 125.7C881.788 122.05 881 118.15 881 114C881 109.85 881.788 105.95 883.363 102.3C884.938 98.65 887.075 95.475 889.775 92.775C892.475 90.075 895.65 87.9375 899.3 86.3625C902.95 84.7875 906.85 84 911 84C915.15 84 919.05 84.7875 922.7 86.3625C926.35 87.9375 929.525 90.075 932.225 92.775C934.925 95.475 937.063 98.65 938.638 102.3C940.213 105.95 941 109.85 941 114C941 118.15 940.213 122.05 938.638 125.7C937.063 129.35 934.925 132.525 932.225 135.225C929.525 137.925 926.35 140.063 922.7 141.638C919.05 143.213 915.15 144 911 144Z" fill="#99CBA1"/>
<path d="M791.225 285.176L788 282.045L801.057 269.369C802.702 267.772 803.875 265.772 804.575 263.369C805.275 260.966 805.625 257.605 805.625 253.285C805.625 250.519 806.25 247.801 807.5 245.131C808.75 242.461 810.65 239.888 813.2 237.412C817.6 233.141 822.427 230.714 827.681 230.131C832.936 229.549 837.259 230.908 840.65 234.208C844.05 237.509 845.45 241.732 844.85 246.877C844.25 252.023 841.75 256.731 837.35 261.003C834.8 263.478 832.15 265.298 829.399 266.463C826.648 267.628 823.849 268.211 821 268.211C816.55 268.211 813.063 268.526 810.538 269.157C808.013 269.788 805.925 270.905 804.275 272.507L791.225 285.176ZM812.975 261.003C815.425 263.381 818.75 264.267 822.95 263.66C827.15 263.053 830.925 261.124 834.275 257.872C837.619 254.64 839.617 251.016 840.27 247.002C840.923 242.987 840.025 239.791 837.575 237.412C835.125 235.034 831.813 234.148 827.638 234.755C823.463 235.361 819.7 237.291 816.35 240.543C813 243.795 810.988 247.426 810.313 251.434C809.638 255.443 810.525 258.633 812.975 261.003ZM837.2 293.84C834.2 293.84 831.65 292.821 829.55 290.782C827.45 288.743 826.4 286.268 826.4 283.355C826.4 280.443 827.45 277.967 829.55 275.929C831.65 273.89 834.2 272.871 837.2 272.871C840.2 272.871 842.75 273.89 844.85 275.929C846.95 277.967 848 280.443 848 283.355C848 286.268 846.95 288.743 844.85 290.782C842.75 292.821 840.2 293.84 837.2 293.84ZM837.2 289.471C839 289.471 840.5 288.889 841.7 287.724C842.9 286.559 843.5 285.103 843.5 283.355C843.5 281.608 842.9 280.152 841.7 278.987C840.5 277.822 839 277.239 837.2 277.239C835.4 277.239 833.9 277.822 832.7 278.987C831.5 280.152 830.9 281.608 830.9 283.355C830.9 285.103 831.5 286.559 832.7 287.724C833.9 288.889 835.4 289.471 837.2 289.471Z" fill="#99CBA1"/>
<path d="M700 295C695.9 295 692.025 294.213 688.375 292.638C684.725 291.063 681.538 288.913 678.813 286.188C676.088 283.463 673.938 280.275 672.363 276.625C670.788 272.975 670 269.1 670 265C670 260.85 670.788 256.963 672.363 253.338C673.938 249.713 676.088 246.538 678.813 243.813C681.538 241.088 684.725 238.938 688.375 237.363C692.025 235.788 695.9 235 700 235C704.15 235 708.038 235.788 711.663 237.363C715.288 238.938 718.463 241.088 721.188 243.813C723.913 246.538 726.063 249.713 727.638 253.338C729.213 256.963 730 260.85 730 265C730 269.1 729.213 272.975 727.638 276.625C726.063 280.275 723.913 283.463 721.188 286.188C718.463 288.913 715.288 291.063 711.663 292.638C708.038 294.213 704.15 295 700 295ZM715.375 258.025L720.55 256.225L721.9 251.425C720.2 248.775 718.1 246.513 715.6 244.638C713.1 242.763 710.275 241.325 707.125 240.325L702.25 243.55V248.8L715.375 258.025ZM684.7 258.025L697.75 248.8V243.55L692.95 240.325C689.8 241.325 686.975 242.763 684.475 244.638C681.975 246.513 679.875 248.775 678.175 251.425L679.825 256.225L684.7 258.025ZM680.65 282.025L685.15 281.5L688.075 276.625L683.425 262.3L678.1 260.5L674.5 263.425C674.5 267.025 674.9 270.313 675.7 273.288C676.5 276.263 678.15 279.175 680.65 282.025ZM700 290.5C701.35 290.5 702.713 290.375 704.088 290.125C705.463 289.875 706.9 289.55 708.4 289.15L710.875 283.75L708.475 279.625H691.6L689.2 283.75L691.675 289.15C692.975 289.55 694.35 289.875 695.8 290.125C697.25 290.375 698.65 290.5 700 290.5ZM692.05 275.125H707.65L712.225 261.4L700 252.625L687.55 261.4L692.05 275.125ZM719.425 282.025C721.875 279.175 723.5 276.263 724.3 273.288C725.1 270.313 725.5 267.025 725.5 263.425L721.9 260.95L716.65 262.3L712 276.625L714.85 281.5L719.425 282.025Z" fill="#99CBA1"/>
<path d="M518.286 149C517.257 149 516.429 148.715 515.8 148.144C515.171 147.574 514.857 146.822 514.857 145.889V138.5H549.143V145.889C549.143 146.822 548.829 147.574 548.2 148.144C547.571 148.715 546.743 149 545.714 149H518.286ZM556 108.167V118.044C556 118.407 555.971 118.641 555.914 118.744L553.257 130.256C553.029 131.137 552.571 131.837 551.886 132.356C551.2 132.874 550.371 133.133 549.4 133.133H514.6C513.629 133.133 512.8 132.874 512.114 132.356C511.429 131.837 510.971 131.137 510.743 130.256L508.086 118.744C508.029 118.641 508 118.407 508 118.044V97.6667C508 96.3185 508.486 95.2037 509.457 94.3222C510.429 93.4407 511.657 93 513.143 93H544.857C546.343 93 547.571 93.4407 548.543 94.3222C549.514 95.2037 550 96.3185 550 97.6667V108.167C550 107.337 550.271 106.676 550.814 106.183C551.357 105.691 552.086 105.444 553 105.444C553.914 105.444 554.643 105.691 555.186 106.183C555.729 106.676 556 107.337 556 108.167ZM515.629 128.467H548.371L550.857 117.033V114.156H544.857V97.6667H513.143V117.033L515.629 128.467ZM519.571 114.156H538.429V103.733H519.571V114.156Z" fill="#99CBA1"/>
<path d="M1078.45 184.575C1077 179.725 1074.29 175.638 1070.31 172.313C1066.34 168.988 1061.65 167.075 1056.25 166.575V171.75L1078.45 184.575ZM1040.28 197.1L1051.75 190.35V166.575C1049.7 166.825 1047.71 167.25 1045.79 167.85C1043.86 168.45 1042.03 169.325 1040.28 170.475V197.1ZM1030.83 202.725L1035.78 199.8V174.075C1033.43 176.475 1031.63 179.238 1030.38 182.363C1029.13 185.488 1028.5 188.7 1028.5 192C1028.5 193.95 1028.7 195.788 1029.1 197.513C1029.5 199.238 1030.08 200.975 1030.83 202.725ZM1042.3 214.725L1065.78 201.15L1054 194.25L1033 206.625C1034.2 208.275 1035.59 209.813 1037.16 211.238C1038.74 212.663 1040.45 213.825 1042.3 214.725ZM1054 217.5C1058.3 217.5 1062.28 216.538 1065.93 214.613C1069.58 212.688 1072.6 210.025 1075 206.625L1070.13 203.775L1047.85 216.75C1048.85 217 1049.88 217.188 1050.93 217.313C1051.98 217.438 1053 217.5 1054 217.5ZM1077.18 202.65C1078.08 200.75 1078.7 198.825 1079.05 196.875C1079.4 194.925 1079.55 192.85 1079.5 190.65L1056.25 177.075V190.35L1077.18 202.65ZM1054 222C1049.85 222 1045.95 221.213 1042.3 219.638C1038.65 218.063 1035.48 215.925 1032.78 213.225C1030.08 210.525 1027.94 207.35 1026.36 203.7C1024.79 200.05 1024 196.15 1024 192C1024 187.85 1024.79 183.95 1026.36 180.3C1027.94 176.65 1030.08 173.475 1032.78 170.775C1035.48 168.075 1038.65 165.938 1042.3 164.363C1045.95 162.788 1049.85 162 1054 162C1058.15 162 1062.05 162.788 1065.7 164.363C1069.35 165.938 1072.53 168.075 1075.23 170.775C1077.93 173.475 1080.06 176.65 1081.64 180.3C1083.21 183.95 1084 187.85 1084 192C1084 196.15 1083.21 200.05 1081.64 203.7C1080.06 207.35 1077.93 210.525 1075.23 213.225C1072.53 215.925 1069.35 218.063 1065.7 219.638C1062.05 221.213 1058.15 222 1054 222Z" fill="#99CBA1"/>
<path d="M1111.13 125.2C1113.68 123.35 1115.65 120.975 1117.05 118.075C1118.45 115.175 1119.15 112.15 1119.15 109C1119.15 105.85 1118.45 102.813 1117.05 99.8875C1115.65 96.9625 1113.68 94.575 1111.13 92.725C1109.23 95.025 1107.81 97.5625 1106.89 100.338C1105.96 103.113 1105.5 106 1105.5 109C1105.5 112 1105.96 114.875 1106.89 117.625C1107.81 120.375 1109.23 122.9 1111.13 125.2ZM1131 134.5C1134.1 134.5 1137.06 134.013 1139.89 133.038C1142.71 132.063 1145.33 130.55 1147.73 128.5C1144.78 126.1 1142.49 123.188 1140.86 119.763C1139.24 116.338 1138.43 112.75 1138.43 109C1138.43 105.25 1139.24 101.65 1140.86 98.2C1142.49 94.75 1144.78 91.825 1147.73 89.425C1145.33 87.425 1142.71 85.9375 1139.89 84.9625C1137.06 83.9875 1134.1 83.5 1131 83.5C1127.9 83.5 1124.94 83.9875 1122.11 84.9625C1119.29 85.9375 1116.68 87.425 1114.28 89.425C1117.23 91.825 1119.53 94.75 1121.18 98.2C1122.83 101.65 1123.65 105.25 1123.65 109C1123.65 112.75 1122.83 116.338 1121.18 119.763C1119.53 123.188 1117.23 126.1 1114.28 128.5C1116.68 130.55 1119.29 132.063 1122.11 133.038C1124.94 134.013 1127.9 134.5 1131 134.5ZM1150.95 125.2C1152.85 122.9 1154.25 120.375 1155.15 117.625C1156.05 114.875 1156.5 112 1156.5 109C1156.5 106 1156.05 103.113 1155.15 100.338C1154.25 97.5625 1152.85 95.025 1150.95 92.725C1148.4 94.575 1146.43 96.9625 1145.03 99.8875C1143.63 102.813 1142.93 105.85 1142.93 109C1142.93 112.15 1143.63 115.175 1145.03 118.075C1146.43 120.975 1148.4 123.35 1150.95 125.2ZM1131 139C1126.9 139 1123.03 138.213 1119.38 136.638C1115.73 135.063 1112.54 132.913 1109.81 130.188C1107.09 127.463 1104.94 124.275 1103.36 120.625C1101.79 116.975 1101 113.1 1101 109C1101 104.85 1101.79 100.963 1103.36 97.3375C1104.94 93.7125 1107.09 90.5375 1109.81 87.8125C1112.54 85.0875 1115.73 82.9375 1119.38 81.3625C1123.03 79.7875 1126.9 79 1131 79C1135.15 79 1139.04 79.7875 1142.66 81.3625C1146.29 82.9375 1149.46 85.0875 1152.19 87.8125C1154.91 90.5375 1157.06 93.7125 1158.64 97.3375C1160.21 100.963 1161 104.85 1161 109C1161 113.1 1160.21 116.975 1158.64 120.625C1157.06 124.275 1154.91 127.463 1152.19 130.188C1149.46 132.913 1146.29 135.063 1142.66 136.638C1139.04 138.213 1135.15 139 1131 139Z" fill="#99CBA1"/>
<path d="M1413.13 208.2C1415.68 206.35 1417.65 203.975 1419.05 201.075C1420.45 198.175 1421.15 195.15 1421.15 192C1421.15 188.85 1420.45 185.813 1419.05 182.888C1417.65 179.963 1415.68 177.575 1413.13 175.725C1411.23 178.025 1409.81 180.563 1408.89 183.338C1407.96 186.113 1407.5 189 1407.5 192C1407.5 195 1407.96 197.875 1408.89 200.625C1409.81 203.375 1411.23 205.9 1413.13 208.2ZM1433 217.5C1436.1 217.5 1439.06 217.013 1441.89 216.038C1444.71 215.063 1447.33 213.55 1449.73 211.5C1446.78 209.1 1444.49 206.188 1442.86 202.763C1441.24 199.338 1440.43 195.75 1440.43 192C1440.43 188.25 1441.24 184.65 1442.86 181.2C1444.49 177.75 1446.78 174.825 1449.73 172.425C1447.33 170.425 1444.71 168.938 1441.89 167.963C1439.06 166.988 1436.1 166.5 1433 166.5C1429.9 166.5 1426.94 166.988 1424.11 167.963C1421.29 168.938 1418.68 170.425 1416.28 172.425C1419.23 174.825 1421.53 177.75 1423.18 181.2C1424.83 184.65 1425.65 188.25 1425.65 192C1425.65 195.75 1424.83 199.338 1423.18 202.763C1421.53 206.188 1419.23 209.1 1416.28 211.5C1418.68 213.55 1421.29 215.063 1424.11 216.038C1426.94 217.013 1429.9 217.5 1433 217.5ZM1452.95 208.2C1454.85 205.9 1456.25 203.375 1457.15 200.625C1458.05 197.875 1458.5 195 1458.5 192C1458.5 189 1458.05 186.113 1457.15 183.338C1456.25 180.563 1454.85 178.025 1452.95 175.725C1450.4 177.575 1448.43 179.963 1447.03 182.888C1445.63 185.813 1444.93 188.85 1444.93 192C1444.93 195.15 1445.63 198.175 1447.03 201.075C1448.43 203.975 1450.4 206.35 1452.95 208.2ZM1433 222C1428.9 222 1425.03 221.213 1421.38 219.638C1417.73 218.063 1414.54 215.913 1411.81 213.188C1409.09 210.463 1406.94 207.275 1405.36 203.625C1403.79 199.975 1403 196.1 1403 192C1403 187.85 1403.79 183.963 1405.36 180.338C1406.94 176.713 1409.09 173.538 1411.81 170.813C1414.54 168.088 1417.73 165.938 1421.38 164.363C1425.03 162.788 1428.9 162 1433 162C1437.15 162 1441.04 162.788 1444.66 164.363C1448.29 165.938 1451.46 168.088 1454.19 170.813C1456.91 173.538 1459.06 176.713 1460.64 180.338C1462.21 183.963 1463 187.85 1463 192C1463 196.1 1462.21 199.975 1460.64 203.625C1459.06 207.275 1456.91 210.463 1454.19 213.188C1451.46 215.913 1448.29 218.063 1444.66 219.638C1441.04 221.213 1437.15 222 1433 222Z" fill="#99CBA1"/>
<path d="M1174 235C1169.9 235 1166.03 234.213 1162.38 232.638C1158.73 231.063 1155.54 228.913 1152.81 226.188C1150.09 223.463 1147.94 220.275 1146.36 216.625C1144.79 212.975 1144 209.1 1144 205C1144 200.85 1144.79 196.963 1146.36 193.338C1147.94 189.713 1150.09 186.538 1152.81 183.813C1155.54 181.088 1158.73 178.938 1162.38 177.363C1166.03 175.788 1169.9 175 1174 175C1178.15 175 1182.04 175.788 1185.66 177.363C1189.29 178.938 1192.46 181.088 1195.19 183.813C1197.91 186.538 1200.06 189.713 1201.64 193.338C1203.21 196.963 1204 200.85 1204 205C1204 209.1 1203.21 212.975 1201.64 216.625C1200.06 220.275 1197.91 223.463 1195.19 226.188C1192.46 228.913 1189.29 231.063 1185.66 232.638C1182.04 234.213 1178.15 235 1174 235ZM1189.38 198.025L1194.55 196.225L1195.9 191.425C1194.2 188.775 1192.1 186.513 1189.6 184.638C1187.1 182.763 1184.28 181.325 1181.13 180.325L1176.25 183.55V188.8L1189.38 198.025ZM1158.7 198.025L1171.75 188.8V183.55L1166.95 180.325C1163.8 181.325 1160.98 182.763 1158.48 184.638C1155.98 186.513 1153.88 188.775 1152.18 191.425L1153.83 196.225L1158.7 198.025ZM1154.65 222.025L1159.15 221.5L1162.08 216.625L1157.43 202.3L1152.1 200.5L1148.5 203.425C1148.5 207.025 1148.9 210.313 1149.7 213.288C1150.5 216.263 1152.15 219.175 1154.65 222.025ZM1174 230.5C1175.35 230.5 1176.71 230.375 1178.09 230.125C1179.46 229.875 1180.9 229.55 1182.4 229.15L1184.88 223.75L1182.48 219.625H1165.6L1163.2 223.75L1165.68 229.15C1166.98 229.55 1168.35 229.875 1169.8 230.125C1171.25 230.375 1172.65 230.5 1174 230.5ZM1166.05 215.125H1181.65L1186.23 201.4L1174 192.625L1161.55 201.4L1166.05 215.125ZM1193.43 222.025C1195.88 219.175 1197.5 216.263 1198.3 213.288C1199.1 210.313 1199.5 207.025 1199.5 203.425L1195.9 200.95L1190.65 202.3L1186 216.625L1188.85 221.5L1193.43 222.025Z" fill="#99CBA1"/>
<path d="M1247 116C1240.31 116 1234.64 113.963 1229.99 109.888C1225.33 105.813 1223 100.85 1223 95C1223 89.15 1225.33 84.1875 1229.99 80.1125C1234.64 76.0375 1240.31 74 1247 74C1253.69 74 1259.36 76.0375 1264.01 80.1125C1268.67 84.1875 1271 89.15 1271 95C1271 100.85 1268.67 105.813 1264.01 109.888C1259.36 113.963 1253.69 116 1247 116ZM1247 111.5C1252.26 111.5 1256.71 109.9 1260.37 106.7C1264.03 103.5 1265.86 99.6 1265.86 95C1265.86 90.4 1264.03 86.5 1260.37 83.3C1256.71 80.1 1252.26 78.5 1247 78.5C1241.74 78.5 1237.29 80.1 1233.63 83.3C1229.97 86.5 1228.14 90.4 1228.14 95C1228.14 99.6 1229.97 103.5 1233.63 106.7C1237.29 109.9 1241.74 111.5 1247 111.5ZM1239.8 93.95C1240.49 93.95 1241.09 93.725 1241.6 93.275C1242.11 92.825 1242.37 92.3 1242.37 91.7C1242.37 91.1 1242.11 90.575 1241.6 90.125C1241.09 89.675 1240.49 89.45 1239.8 89.45C1239.11 89.45 1238.51 89.675 1238 90.125C1237.49 90.575 1237.23 91.1 1237.23 91.7C1237.23 92.3 1237.49 92.825 1238 93.275C1238.51 93.725 1239.11 93.95 1239.8 93.95ZM1254.2 93.95C1254.89 93.95 1255.49 93.725 1256 93.275C1256.51 92.825 1256.77 92.3 1256.77 91.7C1256.77 91.1 1256.51 90.575 1256 90.125C1255.49 89.675 1254.89 89.45 1254.2 89.45C1253.51 89.45 1252.91 89.675 1252.4 90.125C1251.89 90.575 1251.63 91.1 1251.63 91.7C1251.63 92.3 1251.89 92.825 1252.4 93.275C1252.91 93.725 1253.51 93.95 1254.2 93.95ZM1247 87.2C1247.69 87.2 1248.29 86.975 1248.8 86.525C1249.31 86.075 1249.57 85.55 1249.57 84.95C1249.57 84.35 1249.31 83.825 1248.8 83.375C1248.29 82.925 1247.69 82.7 1247 82.7C1246.31 82.7 1245.71 82.925 1245.2 83.375C1244.69 83.825 1244.43 84.35 1244.43 84.95C1244.43 85.55 1244.69 86.075 1245.2 86.525C1245.71 86.975 1246.31 87.2 1247 87.2ZM1244.43 134V130.4C1244.43 128.6 1243.77 127.125 1242.46 125.975C1241.14 124.825 1239.46 124.25 1237.4 124.25H1229.86V119.75H1264.14V124.25H1256.6C1254.54 124.25 1252.86 124.825 1251.54 125.975C1250.23 127.125 1249.57 128.6 1249.57 130.4V134H1244.43Z" fill="#99CBA1"/>
<path d="M1024 116C1017.31 116 1011.64 113.963 1006.99 109.888C1002.33 105.813 1000 100.85 1000 95C1000 89.15 1002.33 84.1875 1006.99 80.1125C1011.64 76.0375 1017.31 74 1024 74C1030.69 74 1036.36 76.0375 1041.01 80.1125C1045.67 84.1875 1048 89.15 1048 95C1048 100.85 1045.67 105.813 1041.01 109.888C1036.36 113.963 1030.69 116 1024 116ZM1024 111.5C1029.26 111.5 1033.71 109.9 1037.37 106.7C1041.03 103.5 1042.86 99.6 1042.86 95C1042.86 90.4 1041.03 86.5 1037.37 83.3C1033.71 80.1 1029.26 78.5 1024 78.5C1018.74 78.5 1014.29 80.1 1010.63 83.3C1006.97 86.5 1005.14 90.4 1005.14 95C1005.14 99.6 1006.97 103.5 1010.63 106.7C1014.29 109.9 1018.74 111.5 1024 111.5ZM1016.8 93.95C1017.49 93.95 1018.09 93.725 1018.6 93.275C1019.11 92.825 1019.37 92.3 1019.37 91.7C1019.37 91.1 1019.11 90.575 1018.6 90.125C1018.09 89.675 1017.49 89.45 1016.8 89.45C1016.11 89.45 1015.51 89.675 1015 90.125C1014.49 90.575 1014.23 91.1 1014.23 91.7C1014.23 92.3 1014.49 92.825 1015 93.275C1015.51 93.725 1016.11 93.95 1016.8 93.95ZM1031.2 93.95C1031.89 93.95 1032.49 93.725 1033 93.275C1033.51 92.825 1033.77 92.3 1033.77 91.7C1033.77 91.1 1033.51 90.575 1033 90.125C1032.49 89.675 1031.89 89.45 1031.2 89.45C1030.51 89.45 1029.91 89.675 1029.4 90.125C1028.89 90.575 1028.63 91.1 1028.63 91.7C1028.63 92.3 1028.89 92.825 1029.4 93.275C1029.91 93.725 1030.51 93.95 1031.2 93.95ZM1024 87.2C1024.69 87.2 1025.29 86.975 1025.8 86.525C1026.31 86.075 1026.57 85.55 1026.57 84.95C1026.57 84.35 1026.31 83.825 1025.8 83.375C1025.29 82.925 1024.69 82.7 1024 82.7C1023.31 82.7 1022.71 82.925 1022.2 83.375C1021.69 83.825 1021.43 84.35 1021.43 84.95C1021.43 85.55 1021.69 86.075 1022.2 86.525C1022.71 86.975 1023.31 87.2 1024 87.2ZM1021.43 134V130.4C1021.43 128.6 1020.77 127.125 1019.46 125.975C1018.14 124.825 1016.46 124.25 1014.4 124.25H1006.86V119.75H1041.14V124.25H1033.6C1031.54 124.25 1029.86 124.825 1028.54 125.975C1027.23 127.125 1026.57 128.6 1026.57 130.4V134H1021.43Z" fill="#99CBA1"/>
<path d="M643 111C636.314 111 630.643 108.963 625.986 104.888C621.329 100.813 619 95.85 619 90C619 84.15 621.329 79.1875 625.986 75.1125C630.643 71.0375 636.314 69 643 69C649.686 69 655.357 71.0375 660.014 75.1125C664.671 79.1875 667 84.15 667 90C667 95.85 664.671 100.813 660.014 104.888C655.357 108.963 649.686 111 643 111ZM643 106.5C648.257 106.5 652.714 104.9 656.371 101.7C660.029 98.5 661.857 94.6 661.857 90C661.857 85.4 660.029 81.5 656.371 78.3C652.714 75.1 648.257 73.5 643 73.5C637.743 73.5 633.286 75.1 629.629 78.3C625.971 81.5 624.143 85.4 624.143 90C624.143 94.6 625.971 98.5 629.629 101.7C633.286 104.9 637.743 106.5 643 106.5ZM635.8 88.95C636.486 88.95 637.086 88.725 637.6 88.275C638.114 87.825 638.371 87.3 638.371 86.7C638.371 86.1 638.114 85.575 637.6 85.125C637.086 84.675 636.486 84.45 635.8 84.45C635.114 84.45 634.514 84.675 634 85.125C633.486 85.575 633.229 86.1 633.229 86.7C633.229 87.3 633.486 87.825 634 88.275C634.514 88.725 635.114 88.95 635.8 88.95ZM650.2 88.95C650.886 88.95 651.486 88.725 652 88.275C652.514 87.825 652.771 87.3 652.771 86.7C652.771 86.1 652.514 85.575 652 85.125C651.486 84.675 650.886 84.45 650.2 84.45C649.514 84.45 648.914 84.675 648.4 85.125C647.886 85.575 647.629 86.1 647.629 86.7C647.629 87.3 647.886 87.825 648.4 88.275C648.914 88.725 649.514 88.95 650.2 88.95ZM643 82.2C643.686 82.2 644.286 81.975 644.8 81.525C645.314 81.075 645.571 80.55 645.571 79.95C645.571 79.35 645.314 78.825 644.8 78.375C644.286 77.925 643.686 77.7 643 77.7C642.314 77.7 641.714 77.925 641.2 78.375C640.686 78.825 640.429 79.35 640.429 79.95C640.429 80.55 640.686 81.075 641.2 81.525C641.714 81.975 642.314 82.2 643 82.2ZM640.429 129V125.4C640.429 123.6 639.771 122.125 638.457 120.975C637.143 119.825 635.457 119.25 633.4 119.25H625.857V114.75H660.143V119.25H652.6C650.543 119.25 648.857 119.825 647.543 120.975C646.229 122.125 645.571 123.6 645.571 125.4V129H640.429Z" fill="#99CBA1"/>
<path d="M1315.19 197C1311.98 197 1309.26 196.695 1307.02 196.084C1304.78 195.474 1303.31 194.812 1302.59 194.1C1301.83 193.388 1301.21 191.938 1300.73 189.75C1300.24 187.562 1300 184.866 1300 181.661C1300 175.81 1301.04 170.162 1303.13 164.718C1305.21 159.275 1308.17 154.568 1311.98 150.6C1315.49 146.682 1320.05 143.77 1325.64 141.862C1331.24 139.954 1337.11 139 1343.27 139C1346.43 139 1349.13 139.267 1351.4 139.801C1353.66 140.336 1355.13 140.908 1355.79 141.518C1356.5 142.078 1357.05 143.401 1357.43 145.487C1357.81 147.573 1358 150.396 1358 153.958C1358 160.012 1357 165.761 1354.99 171.205C1352.98 176.649 1350.11 181.254 1346.4 185.018C1342.58 188.987 1337.9 191.976 1332.36 193.986C1326.81 195.995 1321.09 197 1315.19 197ZM1304.35 183.416C1305.98 178.939 1308.14 174.652 1310.84 170.557C1313.53 166.461 1316.71 162.582 1320.38 158.918C1323.28 155.866 1326.74 153.106 1330.76 150.638C1334.77 148.171 1339.46 145.716 1344.8 143.274C1339.4 143.019 1334 143.884 1328.58 145.868C1323.16 147.853 1318.75 150.549 1315.34 153.958C1311.98 157.468 1309.27 161.869 1307.21 167.161C1305.15 172.452 1304.2 177.87 1304.35 183.416ZM1313.66 192.65C1319.71 192.396 1325.35 191.289 1330.56 189.33C1335.78 187.371 1339.96 184.815 1343.12 181.661C1346.48 178.15 1349.11 173.736 1351.02 168.42C1352.93 163.103 1353.83 157.672 1353.73 152.126C1351.54 157.468 1349.16 162.086 1346.59 165.978C1344.02 169.87 1341.19 173.418 1338.08 176.624C1335.23 179.676 1331.84 182.436 1327.89 184.904C1323.95 187.371 1319.21 189.954 1313.66 192.65ZM1307.56 189.445C1312.29 188.122 1317.04 186.023 1321.83 183.149C1326.61 180.274 1330.91 177.005 1334.72 173.342C1338.34 169.577 1341.55 165.342 1344.38 160.636C1347.2 155.929 1349.35 151.109 1350.83 146.174C1345.89 147.649 1341.05 149.824 1336.29 152.699C1331.53 155.573 1327.32 158.766 1323.66 162.276C1320.25 165.787 1317.08 169.946 1314.16 174.754C1311.23 179.562 1309.03 184.459 1307.56 189.445Z" fill="#99CBA1"/>
<path d="M1251.58 258.75H1261.85C1261.5 256.35 1260.8 254.088 1259.75 251.963C1258.7 249.838 1257.4 248 1255.85 246.45C1254.7 248.2 1253.73 250.1 1252.93 252.15C1252.13 254.2 1251.68 256.4 1251.58 258.75ZM1292.15 258.75H1302.43C1302.33 256.4 1301.88 254.2 1301.08 252.15C1300.28 250.1 1299.3 248.2 1298.15 246.45C1296.45 248.15 1295.11 250.025 1294.14 252.075C1293.16 254.125 1292.5 256.35 1292.15 258.75ZM1255.85 275.475C1257.55 273.775 1258.89 271.913 1259.86 269.888C1260.84 267.863 1261.5 265.65 1261.85 263.25H1251.58C1251.68 265.6 1252.13 267.788 1252.93 269.813C1253.73 271.838 1254.7 273.725 1255.85 275.475ZM1298.15 275.475C1299.3 273.725 1300.28 271.838 1301.08 269.813C1301.88 267.788 1302.33 265.6 1302.43 263.25H1292.15C1292.5 265.65 1293.16 267.863 1294.14 269.888C1295.11 271.913 1296.45 273.775 1298.15 275.475ZM1266.43 258.75H1274.75V235.575C1271.65 235.925 1268.76 236.725 1266.09 237.975C1263.41 239.225 1261 240.9 1258.85 243C1260.9 245.05 1262.58 247.425 1263.88 250.125C1265.18 252.825 1266.03 255.7 1266.43 258.75ZM1279.25 258.75H1287.58C1287.98 255.7 1288.84 252.825 1290.16 250.125C1291.49 247.425 1293.18 245.05 1295.23 243C1293.08 240.9 1290.65 239.225 1287.95 237.975C1285.25 236.725 1282.35 235.925 1279.25 235.575V258.75ZM1274.75 286.425V263.25H1266.43C1266.03 266.3 1265.18 269.163 1263.88 271.838C1262.58 274.513 1260.9 276.875 1258.85 278.925C1261 281.025 1263.35 282.713 1265.9 283.988C1268.45 285.263 1271.4 286.075 1274.75 286.425ZM1279.25 286.425C1282.6 286.075 1285.56 285.263 1288.14 283.988C1290.71 282.713 1293.08 281.025 1295.23 278.925C1293.18 276.875 1291.49 274.513 1290.16 271.838C1288.84 269.163 1287.98 266.3 1287.58 263.25H1279.25V286.425ZM1277 291C1272.85 291 1268.95 290.213 1265.3 288.638C1261.65 287.063 1258.48 284.925 1255.78 282.225C1253.08 279.525 1250.94 276.35 1249.36 272.7C1247.79 269.05 1247 265.15 1247 261C1247 256.85 1247.79 252.95 1249.36 249.3C1250.94 245.65 1253.08 242.475 1255.78 239.775C1258.48 237.075 1261.65 234.938 1265.3 233.363C1268.95 231.788 1272.85 231 1277 231C1281.15 231 1285.05 231.788 1288.7 233.363C1292.35 234.938 1295.53 237.075 1298.23 239.775C1300.93 242.475 1303.06 245.65 1304.64 249.3C1306.21 252.95 1307 256.85 1307 261C1307 265.15 1306.21 269.05 1304.64 272.7C1303.06 276.35 1300.93 279.525 1298.23 282.225C1295.53 284.925 1292.35 287.063 1288.7 288.638C1285.05 290.213 1281.15 291 1277 291Z" fill="#99CBA1"/>
<path d="M874.575 292.75H884.85C884.5 290.35 883.8 288.088 882.75 285.963C881.7 283.838 880.4 282 878.85 280.45C877.7 282.2 876.725 284.1 875.925 286.15C875.125 288.2 874.675 290.4 874.575 292.75ZM915.15 292.75H925.425C925.325 290.4 924.875 288.2 924.075 286.15C923.275 284.1 922.3 282.2 921.15 280.45C919.45 282.15 918.113 284.025 917.138 286.075C916.163 288.125 915.5 290.35 915.15 292.75ZM878.85 309.475C880.55 307.775 881.888 305.913 882.863 303.888C883.838 301.863 884.5 299.65 884.85 297.25H874.575C874.675 299.6 875.125 301.788 875.925 303.813C876.725 305.838 877.7 307.725 878.85 309.475ZM921.15 309.475C922.3 307.725 923.275 305.838 924.075 303.813C924.875 301.788 925.325 299.6 925.425 297.25H915.15C915.5 299.65 916.163 301.863 917.138 303.888C918.113 305.913 919.45 307.775 921.15 309.475ZM889.425 292.75H897.75V269.575C894.65 269.925 891.763 270.725 889.088 271.975C886.413 273.225 884 274.9 881.85 277C883.9 279.05 885.575 281.425 886.875 284.125C888.175 286.825 889.025 289.7 889.425 292.75ZM902.25 292.75H910.575C910.975 289.7 911.838 286.825 913.163 284.125C914.488 281.425 916.175 279.05 918.225 277C916.075 274.9 913.65 273.225 910.95 271.975C908.25 270.725 905.35 269.925 902.25 269.575V292.75ZM897.75 320.425V297.25H889.425C889.025 300.3 888.175 303.163 886.875 305.838C885.575 308.513 883.9 310.875 881.85 312.925C884 315.025 886.35 316.713 888.9 317.988C891.45 319.263 894.4 320.075 897.75 320.425ZM902.25 320.425C905.6 320.075 908.563 319.263 911.138 317.988C913.713 316.713 916.075 315.025 918.225 312.925C916.175 310.875 914.488 308.513 913.163 305.838C911.838 303.163 910.975 300.3 910.575 297.25H902.25V320.425ZM900 325C895.85 325 891.95 324.213 888.3 322.638C884.65 321.063 881.475 318.925 878.775 316.225C876.075 313.525 873.938 310.35 872.363 306.7C870.788 303.05 870 299.15 870 295C870 290.85 870.788 286.95 872.363 283.3C873.938 279.65 876.075 276.475 878.775 273.775C881.475 271.075 884.65 268.938 888.3 267.363C891.95 265.788 895.85 265 900 265C904.15 265 908.05 265.788 911.7 267.363C915.35 268.938 918.525 271.075 921.225 273.775C923.925 276.475 926.063 279.65 927.638 283.3C929.213 286.95 930 290.85 930 295C930 299.15 929.213 303.05 927.638 306.7C926.063 310.35 923.925 313.525 921.225 316.225C918.525 318.925 915.35 321.063 911.7 322.638C908.05 324.213 904.15 325 900 325Z" fill="#99CBA1"/>
<path d="M1365.23 308.176L1362 305.045L1375.06 292.369C1376.7 290.772 1377.88 288.772 1378.58 286.369C1379.28 283.966 1379.63 280.605 1379.63 276.285C1379.63 273.519 1380.25 270.801 1381.5 268.131C1382.75 265.461 1384.65 262.888 1387.2 260.412C1391.6 256.141 1396.43 253.714 1401.68 253.131C1406.94 252.549 1411.26 253.908 1414.65 257.208C1418.05 260.509 1419.45 264.732 1418.85 269.877C1418.25 275.023 1415.75 279.731 1411.35 284.003C1408.8 286.478 1406.15 288.298 1403.4 289.463C1400.65 290.628 1397.85 291.211 1395 291.211C1390.55 291.211 1387.06 291.526 1384.54 292.157C1382.01 292.788 1379.93 293.905 1378.28 295.507L1365.23 308.176ZM1386.98 284.003C1389.43 286.381 1392.75 287.267 1396.95 286.66C1401.15 286.053 1404.93 284.124 1408.28 280.872C1411.62 277.64 1413.62 274.016 1414.27 270.002C1414.92 265.987 1414.03 262.791 1411.58 260.412C1409.13 258.034 1405.81 257.148 1401.64 257.755C1397.46 258.361 1393.7 260.291 1390.35 263.543C1387 266.795 1384.99 270.426 1384.31 274.434C1383.64 278.443 1384.53 281.633 1386.98 284.003ZM1411.2 316.84C1408.2 316.84 1405.65 315.821 1403.55 313.782C1401.45 311.743 1400.4 309.268 1400.4 306.355C1400.4 303.443 1401.45 300.967 1403.55 298.929C1405.65 296.89 1408.2 295.871 1411.2 295.871C1414.2 295.871 1416.75 296.89 1418.85 298.929C1420.95 300.967 1422 303.443 1422 306.355C1422 309.268 1420.95 311.743 1418.85 313.782C1416.75 315.821 1414.2 316.84 1411.2 316.84ZM1411.2 312.471C1413 312.471 1414.5 311.889 1415.7 310.724C1416.9 309.559 1417.5 308.103 1417.5 306.355C1417.5 304.608 1416.9 303.152 1415.7 301.987C1414.5 300.822 1413 300.239 1411.2 300.239C1409.4 300.239 1407.9 300.822 1406.7 301.987C1405.5 303.152 1404.9 304.608 1404.9 306.355C1404.9 308.103 1405.5 309.559 1406.7 310.724C1407.9 311.889 1409.4 312.471 1411.2 312.471Z" fill="#99CBA1"/>
<path d="M1332.52 78.9444L1317.98 64.4C1317.56 66.5778 1317.41 69.0796 1317.51 71.9056C1317.61 74.7315 1317.87 76.8963 1318.29 78.4C1319.79 78.8148 1322 79.113 1324.9 79.2944C1327.8 79.4759 1330.34 79.3593 1332.52 78.9444ZM1338.28 78.0889C1341.49 77.4667 1344.51 76.4296 1347.34 74.9778C1350.16 73.5259 1352.62 71.7611 1354.69 69.6833C1356.71 67.6648 1358.44 65.2944 1359.86 62.5722C1361.29 59.85 1362.36 56.7519 1363.09 53.2778L1343.72 33.9111C1340.46 34.637 1337.41 35.713 1334.58 37.1389C1331.76 38.5648 1329.33 40.2889 1327.31 42.3111C1325.29 44.3333 1323.59 46.7574 1322.22 49.5833C1320.84 52.4093 1319.74 55.4556 1318.91 58.7222L1338.28 78.0889ZM1332.29 67.9778L1329.02 64.7111L1349.71 44.0222L1352.98 47.2889L1332.29 67.9778ZM1364.02 47.6C1364.44 45.4222 1364.59 42.9204 1364.49 40.0944C1364.39 37.2685 1364.13 35.1037 1363.71 33.6C1362.21 33.1852 1360 32.887 1357.1 32.7056C1354.2 32.5241 1351.66 32.6407 1349.48 33.0556L1364.02 47.6ZM1326.69 84C1323.89 84 1321.39 83.8056 1319.18 83.4167C1316.98 83.0278 1315.59 82.5605 1315.02 82.015C1314.45 81.4198 1313.97 80.0204 1313.58 77.8167C1313.19 75.613 1313 73.1111 1313 70.3111C1313 63.8296 1313.93 57.8019 1315.8 52.2278C1317.67 46.6537 1320.31 42.1556 1323.73 38.7333C1327.16 35.3111 1331.65 32.6667 1337.22 30.8C1342.79 28.9333 1348.82 28 1355.31 28C1358.11 28 1360.61 28.1944 1362.82 28.5833C1365.02 28.9722 1366.41 29.4395 1366.98 29.985C1367.55 30.5802 1368.03 31.9796 1368.42 34.1833C1368.81 36.387 1369 38.8889 1369 41.6889C1369 48.1704 1368.07 54.1981 1366.2 59.7722C1364.33 65.3463 1361.69 69.8444 1358.27 73.2667C1354.84 76.6889 1350.35 79.3333 1344.77 81.2C1339.2 83.0667 1333.17 84 1326.69 84Z" fill="#99CBA1"/>
<path d="M781.522 115.944L766.978 101.4C766.563 103.578 766.407 106.08 766.511 108.906C766.615 111.731 766.874 113.896 767.289 115.4C768.793 115.815 770.996 116.113 773.9 116.294C776.804 116.476 779.344 116.359 781.522 115.944ZM787.278 115.089C790.493 114.467 793.513 113.43 796.339 111.978C799.165 110.526 801.617 108.761 803.694 106.683C805.713 104.665 807.435 102.294 808.861 99.5722C810.287 96.85 811.363 93.7519 812.089 90.2778L792.722 70.9111C789.456 71.637 786.409 72.713 783.583 74.1389C780.757 75.5648 778.333 77.2889 776.311 79.3111C774.289 81.3333 772.591 83.7574 771.217 86.5833C769.843 89.4093 768.741 92.4556 767.911 95.7222L787.278 115.089ZM781.289 104.978L778.022 101.711L798.711 81.0222L801.978 84.2889L781.289 104.978ZM813.022 84.6C813.437 82.4222 813.593 79.9204 813.489 77.0944C813.385 74.2685 813.126 72.1037 812.711 70.6C811.207 70.1852 809.004 69.887 806.1 69.7056C803.196 69.5241 800.656 69.6407 798.478 70.0556L813.022 84.6ZM775.689 121C772.889 121 770.387 120.806 768.183 120.417C765.98 120.028 764.593 119.561 764.022 119.015C763.452 118.42 762.972 117.02 762.583 114.817C762.194 112.613 762 110.111 762 107.311C762 100.83 762.933 94.8019 764.8 89.2278C766.667 83.6537 769.311 79.1556 772.733 75.7333C776.156 72.3111 780.652 69.6667 786.222 67.8C791.792 65.9333 797.822 65 804.311 65C807.111 65 809.613 65.1944 811.817 65.5833C814.02 65.9722 815.407 66.4395 815.978 66.985C816.548 67.5802 817.028 68.9796 817.417 71.1833C817.806 73.387 818 75.8889 818 78.6889C818 85.1704 817.067 91.1981 815.2 96.7722C813.333 102.346 810.689 106.844 807.267 110.267C803.844 113.689 799.346 116.333 793.772 118.2C788.198 120.067 782.17 121 775.689 121Z" fill="#99CBA1"/>
<path d="M461.55 235.575C463 230.725 465.712 226.638 469.687 223.313C473.662 219.988 478.35 218.075 483.75 217.575V222.75L461.55 235.575ZM499.725 248.1L488.25 241.35V217.575C490.3 217.825 492.287 218.25 494.212 218.85C496.137 219.45 497.975 220.325 499.725 221.475V248.1ZM509.175 253.725L504.225 250.8V225.075C506.575 227.475 508.375 230.238 509.625 233.363C510.875 236.488 511.5 239.7 511.5 243C511.5 244.95 511.3 246.788 510.9 248.513C510.5 250.238 509.925 251.975 509.175 253.725ZM497.7 265.725L474.225 252.15L486 245.25L507 257.625C505.8 259.275 504.412 260.813 502.837 262.238C501.262 263.663 499.55 264.825 497.7 265.725ZM486 268.5C481.7 268.5 477.725 267.538 474.075 265.613C470.425 263.688 467.4 261.025 465 257.625L469.875 254.775L492.15 267.75C491.15 268 490.125 268.188 489.075 268.313C488.025 268.438 487 268.5 486 268.5ZM462.825 253.65C461.925 251.75 461.3 249.825 460.95 247.875C460.6 245.925 460.45 243.85 460.5 241.65L483.75 228.075V241.35L462.825 253.65ZM486 273C490.15 273 494.05 272.213 497.7 270.638C501.35 269.063 504.525 266.925 507.225 264.225C509.925 261.525 512.062 258.35 513.637 254.7C515.212 251.05 516 247.15 516 243C516 238.85 515.212 234.95 513.637 231.3C512.062 227.65 509.925 224.475 507.225 221.775C504.525 219.075 501.35 216.938 497.7 215.363C494.05 213.788 490.15 213 486 213C481.85 213 477.95 213.788 474.3 215.363C470.65 216.938 467.475 219.075 464.775 221.775C462.075 224.475 459.937 227.65 458.362 231.3C456.787 234.95 456 238.85 456 243C456 247.15 456.787 251.05 458.362 254.7C459.937 258.35 462.075 261.525 464.775 264.225C467.475 266.925 470.65 269.063 474.3 270.638C477.95 272.213 481.85 273 486 273Z" fill="#99CBA1"/>
<path d="M434.875 163.2C432.325 161.35 430.35 158.975 428.95 156.075C427.55 153.175 426.85 150.15 426.85 147C426.85 143.85 427.55 140.813 428.95 137.888C430.35 134.963 432.325 132.575 434.875 130.725C436.775 133.025 438.187 135.563 439.112 138.338C440.037 141.113 440.5 144 440.5 147C440.5 150 440.037 152.875 439.112 155.625C438.187 158.375 436.775 160.9 434.875 163.2ZM415 172.5C411.9 172.5 408.937 172.013 406.112 171.038C403.287 170.063 400.675 168.55 398.275 166.5C401.225 164.1 403.512 161.188 405.137 157.763C406.762 154.338 407.575 150.75 407.575 147C407.575 143.25 406.762 139.65 405.137 136.2C403.512 132.75 401.225 129.825 398.275 127.425C400.675 125.425 403.287 123.938 406.112 122.963C408.937 121.988 411.9 121.5 415 121.5C418.1 121.5 421.062 121.988 423.887 122.963C426.712 123.938 429.325 125.425 431.725 127.425C428.775 129.825 426.475 132.75 424.825 136.2C423.175 139.65 422.35 143.25 422.35 147C422.35 150.75 423.175 154.338 424.825 157.763C426.475 161.188 428.775 164.1 431.725 166.5C429.325 168.55 426.712 170.063 423.887 171.038C421.062 172.013 418.1 172.5 415 172.5ZM395.05 163.2C393.15 160.9 391.75 158.375 390.85 155.625C389.95 152.875 389.5 150 389.5 147C389.5 144 389.95 141.113 390.85 138.338C391.75 135.563 393.15 133.025 395.05 130.725C397.6 132.575 399.575 134.963 400.975 137.888C402.375 140.813 403.075 143.85 403.075 147C403.075 150.15 402.375 153.175 400.975 156.075C399.575 158.975 397.6 161.35 395.05 163.2ZM415 177C419.1 177 422.975 176.213 426.625 174.638C430.275 173.063 433.462 170.913 436.187 168.188C438.912 165.463 441.062 162.275 442.637 158.625C444.212 154.975 445 151.1 445 147C445 142.85 444.212 138.963 442.637 135.338C441.062 131.713 438.912 128.538 436.187 125.813C433.462 123.088 430.275 120.938 426.625 119.363C422.975 117.788 419.1 117 415 117C410.85 117 406.962 117.788 403.337 119.363C399.712 120.938 396.537 123.088 393.812 125.813C391.087 128.538 388.937 131.713 387.362 135.338C385.787 138.963 385 142.85 385 147C385 151.1 385.787 154.975 387.362 158.625C388.937 162.275 391.087 165.463 393.812 168.188C396.537 170.913 399.712 173.063 403.337 174.638C406.962 176.213 410.85 177 415 177Z" fill="#99CBA1"/>
<path d="M336 246C340.1 246 343.975 245.213 347.625 243.638C351.275 242.063 354.462 239.913 357.187 237.188C359.912 234.463 362.062 231.275 363.637 227.625C365.212 223.975 366 220.1 366 216C366 211.85 365.212 207.963 363.637 204.338C362.062 200.713 359.912 197.538 357.187 194.813C354.462 192.088 351.275 189.938 347.625 188.363C343.975 186.788 340.1 186 336 186C331.85 186 327.962 186.788 324.337 188.363C320.712 189.938 317.537 192.088 314.812 194.813C312.087 197.538 309.937 200.713 308.362 204.338C306.787 207.963 306 211.85 306 216C306 220.1 306.787 223.975 308.362 227.625C309.937 231.275 312.087 234.463 314.812 237.188C317.537 239.913 320.712 242.063 324.337 243.638C327.962 245.213 331.85 246 336 246ZM320.625 209.025L315.45 207.225L314.1 202.425C315.8 199.775 317.9 197.513 320.4 195.638C322.9 193.763 325.725 192.325 328.875 191.325L333.75 194.55V199.8L320.625 209.025ZM351.3 209.025L338.25 199.8V194.55L343.05 191.325C346.2 192.325 349.025 193.763 351.525 195.638C354.025 197.513 356.125 199.775 357.825 202.425L356.175 207.225L351.3 209.025ZM355.35 233.025L350.85 232.5L347.925 227.625L352.575 213.3L357.9 211.5L361.5 214.425C361.5 218.025 361.1 221.313 360.3 224.288C359.5 227.263 357.85 230.175 355.35 233.025ZM336 241.5C334.65 241.5 333.287 241.375 331.912 241.125C330.537 240.875 329.1 240.55 327.6 240.15L325.125 234.75L327.525 230.625H344.4L346.8 234.75L344.325 240.15C343.025 240.55 341.65 240.875 340.2 241.125C338.75 241.375 337.35 241.5 336 241.5ZM343.95 226.125H328.35L323.775 212.4L336 203.625L348.45 212.4L343.95 226.125ZM316.575 233.025C314.125 230.175 312.5 227.263 311.7 224.288C310.9 221.313 310.5 218.025 310.5 214.425L314.1 211.95L319.35 213.3L324 227.625L321.15 232.5L316.575 233.025Z" fill="#99CBA1"/>
<path d="M300 129C306.686 129 312.357 126.963 317.014 122.888C321.671 118.813 324 113.85 324 108C324 102.15 321.671 97.1875 317.014 93.1125C312.357 89.0375 306.686 87 300 87C293.314 87 287.643 89.0375 282.986 93.1125C278.329 97.1875 276 102.15 276 108C276 113.85 278.329 118.813 282.986 122.888C287.643 126.963 293.314 129 300 129ZM300 124.5C294.743 124.5 290.286 122.9 286.629 119.7C282.971 116.5 281.143 112.6 281.143 108C281.143 103.4 282.971 99.5 286.629 96.3C290.286 93.1 294.743 91.5 300 91.5C305.257 91.5 309.714 93.1 313.371 96.3C317.029 99.5 318.857 103.4 318.857 108C318.857 112.6 317.029 116.5 313.371 119.7C309.714 122.9 305.257 124.5 300 124.5ZM307.2 106.95C306.514 106.95 305.914 106.725 305.4 106.275C304.886 105.825 304.629 105.3 304.629 104.7C304.629 104.1 304.886 103.575 305.4 103.125C305.914 102.675 306.514 102.45 307.2 102.45C307.886 102.45 308.486 102.675 309 103.125C309.514 103.575 309.771 104.1 309.771 104.7C309.771 105.3 309.514 105.825 309 106.275C308.486 106.725 307.886 106.95 307.2 106.95ZM292.8 106.95C292.114 106.95 291.514 106.725 291 106.275C290.486 105.825 290.229 105.3 290.229 104.7C290.229 104.1 290.486 103.575 291 103.125C291.514 102.675 292.114 102.45 292.8 102.45C293.486 102.45 294.086 102.675 294.6 103.125C295.114 103.575 295.371 104.1 295.371 104.7C295.371 105.3 295.114 105.825 294.6 106.275C294.086 106.725 293.486 106.95 292.8 106.95ZM300 100.2C299.314 100.2 298.714 99.975 298.2 99.525C297.686 99.075 297.429 98.55 297.429 97.95C297.429 97.35 297.686 96.825 298.2 96.375C298.714 95.925 299.314 95.7 300 95.7C300.686 95.7 301.286 95.925 301.8 96.375C302.314 96.825 302.571 97.35 302.571 97.95C302.571 98.55 302.314 99.075 301.8 99.525C301.286 99.975 300.686 100.2 300 100.2ZM302.571 147V143.4C302.571 141.6 303.229 140.125 304.543 138.975C305.857 137.825 307.543 137.25 309.6 137.25H317.143V132.75H282.857V137.25H290.4C292.457 137.25 294.143 137.825 295.457 138.975C296.771 140.125 297.429 141.6 297.429 143.4V147H302.571Z" fill="#99CBA1"/>
<path d="M224.813 147C228.018 147 230.74 146.695 232.979 146.084C235.218 145.474 236.693 144.812 237.405 144.1C238.168 143.388 238.792 141.938 239.275 139.75C239.758 137.562 240 134.866 240 131.661C240 125.81 238.957 120.162 236.871 114.718C234.785 109.275 231.834 104.568 228.018 100.6C224.508 96.6825 219.954 93.7697 214.358 91.8618C208.761 89.9539 202.885 89 196.729 89C193.575 89 190.865 89.2671 188.601 89.8013C186.337 90.3355 184.875 90.9079 184.213 91.5184C183.501 92.0781 182.954 93.4009 182.572 95.4868C182.191 97.5728 182 100.396 182 103.958C182 110.012 183.005 115.761 185.014 121.205C187.024 126.649 189.886 131.254 193.6 135.018C197.416 138.987 202.096 141.976 207.642 143.986C213.188 145.995 218.911 147 224.813 147ZM235.65 133.416C234.022 128.939 231.86 124.652 229.163 120.557C226.467 116.461 223.287 112.582 219.624 108.918C216.724 105.866 213.264 103.106 209.245 100.638C205.225 98.1706 200.545 95.7158 195.203 93.2737C200.596 93.0193 206.001 93.8842 211.42 95.8684C216.838 97.8526 221.252 100.549 224.661 103.958C228.018 107.468 230.728 111.869 232.788 117.161C234.849 122.452 235.803 127.87 235.65 133.416ZM226.339 142.65C220.285 142.396 214.65 141.289 209.436 139.33C204.221 137.371 200.036 134.815 196.882 131.661C193.524 128.15 190.891 123.736 188.983 118.42C187.075 113.103 186.172 107.672 186.274 102.126C188.461 107.468 190.84 112.086 193.409 115.978C195.979 119.87 198.815 123.418 201.918 126.624C204.768 129.676 208.164 132.436 212.107 134.904C216.05 137.371 220.794 139.954 226.339 142.65ZM232.445 139.445C227.713 138.122 222.956 136.023 218.174 133.149C213.391 130.274 209.092 127.005 205.276 123.342C201.664 119.577 198.446 115.342 195.622 110.636C192.799 105.929 190.649 101.109 189.174 96.1737C194.109 97.6491 198.955 99.8241 203.712 102.699C208.469 105.573 212.679 108.766 216.342 112.276C219.751 115.787 222.918 119.946 225.843 124.754C228.769 129.562 230.969 134.459 232.445 139.445Z" fill="#99CBA1"/>
<path d="M603.813 320C607.018 320 609.74 319.695 611.979 319.084C614.218 318.474 615.693 317.812 616.405 317.1C617.168 316.388 617.792 314.938 618.275 312.75C618.758 310.562 619 307.866 619 304.661C619 298.81 617.957 293.162 615.871 287.718C613.785 282.275 610.834 277.568 607.018 273.6C603.508 269.682 598.954 266.77 593.358 264.862C587.761 262.954 581.885 262 575.729 262C572.575 262 569.865 262.267 567.601 262.801C565.337 263.336 563.875 263.908 563.213 264.518C562.501 265.078 561.954 266.401 561.572 268.487C561.191 270.573 561 273.396 561 276.958C561 283.012 562.005 288.761 564.014 294.205C566.024 299.649 568.886 304.254 572.6 308.018C576.416 311.987 581.096 314.976 586.642 316.986C592.188 318.995 597.911 320 603.813 320ZM614.65 306.416C613.022 301.939 610.86 297.652 608.163 293.557C605.467 289.461 602.287 285.582 598.624 281.918C595.724 278.866 592.264 276.106 588.245 273.638C584.225 271.171 579.545 268.716 574.203 266.274C579.596 266.019 585.001 266.884 590.42 268.868C595.838 270.853 600.252 273.549 603.661 276.958C607.018 280.468 609.728 284.869 611.788 290.161C613.849 295.452 614.803 300.87 614.65 306.416ZM605.339 315.65C599.285 315.396 593.65 314.289 588.436 312.33C583.221 310.371 579.036 307.815 575.882 304.661C572.524 301.15 569.891 296.736 567.983 291.42C566.075 286.103 565.172 280.672 565.274 275.126C567.461 280.468 569.84 285.086 572.409 288.978C574.979 292.87 577.815 296.418 580.918 299.624C583.768 302.676 587.164 305.436 591.107 307.904C595.05 310.371 599.794 312.954 605.339 315.65ZM611.445 312.445C606.713 311.122 601.956 309.023 597.174 306.149C592.391 303.274 588.092 300.005 584.276 296.342C580.664 292.577 577.446 288.342 574.622 283.636C571.799 278.929 569.649 274.109 568.174 269.174C573.109 270.649 577.955 272.824 582.712 275.699C587.469 278.573 591.679 281.766 595.342 285.276C598.751 288.787 601.918 292.946 604.843 297.754C607.769 302.562 609.969 307.459 611.445 312.445Z" fill="#99CBA1"/>
<path d="M252.425 272.75H242.15C242.5 270.35 243.2 268.088 244.25 265.963C245.3 263.838 246.6 262 248.15 260.45C249.3 262.2 250.275 264.1 251.075 266.15C251.875 268.2 252.325 270.4 252.425 272.75ZM211.85 272.75H201.575C201.675 270.4 202.125 268.2 202.925 266.15C203.725 264.1 204.7 262.2 205.85 260.45C207.55 262.15 208.887 264.025 209.862 266.075C210.837 268.125 211.5 270.35 211.85 272.75ZM248.15 289.475C246.45 287.775 245.112 285.913 244.137 283.888C243.162 281.863 242.5 279.65 242.15 277.25H252.425C252.325 279.6 251.875 281.788 251.075 283.813C250.275 285.838 249.3 287.725 248.15 289.475ZM205.85 289.475C204.7 287.725 203.725 285.838 202.925 283.813C202.125 281.788 201.675 279.6 201.575 277.25H211.85C211.5 279.65 210.837 281.863 209.862 283.888C208.887 285.913 207.55 287.775 205.85 289.475ZM237.575 272.75H229.25V249.575C232.35 249.925 235.237 250.725 237.912 251.975C240.587 253.225 243 254.9 245.15 257C243.1 259.05 241.425 261.425 240.125 264.125C238.825 266.825 237.975 269.7 237.575 272.75ZM224.75 272.75H216.425C216.025 269.7 215.162 266.825 213.837 264.125C212.512 261.425 210.825 259.05 208.775 257C210.925 254.9 213.35 253.225 216.05 251.975C218.75 250.725 221.65 249.925 224.75 249.575V272.75ZM229.25 300.425V277.25H237.575C237.975 280.3 238.825 283.163 240.125 285.838C241.425 288.513 243.1 290.875 245.15 292.925C243 295.025 240.65 296.713 238.1 297.988C235.55 299.263 232.6 300.075 229.25 300.425ZM224.75 300.425C221.4 300.075 218.437 299.263 215.862 297.988C213.287 296.713 210.925 295.025 208.775 292.925C210.825 290.875 212.512 288.513 213.837 285.838C215.162 283.163 216.025 280.3 216.425 277.25H224.75V300.425ZM227 305C231.15 305 235.05 304.213 238.7 302.638C242.35 301.063 245.525 298.925 248.225 296.225C250.925 293.525 253.062 290.35 254.637 286.7C256.212 283.05 257 279.15 257 275C257 270.85 256.212 266.95 254.637 263.3C253.062 259.65 250.925 256.475 248.225 253.775C245.525 251.075 242.35 248.938 238.7 247.363C235.05 245.788 231.15 245 227 245C222.85 245 218.95 245.788 215.3 247.363C211.65 248.938 208.475 251.075 205.775 253.775C203.075 256.475 200.937 259.65 199.362 263.3C197.787 266.95 197 270.85 197 275C197 279.15 197.787 283.05 199.362 286.7C200.937 290.35 203.075 293.525 205.775 296.225C208.475 298.925 211.65 301.063 215.3 302.638C218.95 304.213 222.85 305 227 305Z" fill="#99CBA1"/>
<path d="M178.775 232.176L182 229.045L168.943 216.369C167.298 214.772 166.125 212.772 165.425 210.369C164.725 207.966 164.375 204.605 164.375 200.285C164.375 197.519 163.75 194.801 162.5 192.131C161.25 189.461 159.35 186.888 156.8 184.412C152.4 180.141 147.573 177.714 142.319 177.131C137.064 176.549 132.741 177.908 129.35 181.208C125.95 184.509 124.55 188.732 125.15 193.877C125.75 199.023 128.25 203.731 132.65 208.003C135.2 210.478 137.85 212.298 140.601 213.463C143.352 214.628 146.151 215.211 149 215.211C153.45 215.211 156.937 215.526 159.462 216.157C161.987 216.788 164.075 217.905 165.725 219.507L178.775 232.176ZM157.025 208.003C154.575 210.381 151.25 211.267 147.05 210.66C142.85 210.053 139.075 208.124 135.725 204.872C132.381 201.64 130.383 198.016 129.73 194.002C129.077 189.987 129.975 186.791 132.425 184.412C134.875 182.034 138.187 181.148 142.362 181.755C146.537 182.361 150.3 184.291 153.65 187.543C157 190.795 159.012 194.426 159.687 198.434C160.362 202.443 159.475 205.633 157.025 208.003ZM132.8 240.84C135.8 240.84 138.35 239.821 140.45 237.782C142.55 235.743 143.6 233.268 143.6 230.355C143.6 227.443 142.55 224.967 140.45 222.929C138.35 220.89 135.8 219.871 132.8 219.871C129.8 219.871 127.25 220.89 125.15 222.929C123.05 224.967 122 227.443 122 230.355C122 233.268 123.05 235.743 125.15 237.782C127.25 239.821 129.8 240.84 132.8 240.84ZM132.8 236.471C131 236.471 129.5 235.889 128.3 234.724C127.1 233.559 126.5 232.103 126.5 230.355C126.5 228.608 127.1 227.152 128.3 225.987C129.5 224.822 131 224.239 132.8 224.239C134.6 224.239 136.1 224.822 137.3 225.987C138.5 227.152 139.1 228.608 139.1 230.355C139.1 232.103 138.5 233.559 137.3 234.724C136.1 235.889 134.6 236.471 132.8 236.471Z" fill="#99CBA1"/>
<path d="M132.478 59.9444L147.022 45.4C147.437 47.5778 147.593 50.0796 147.489 52.9056C147.385 55.7315 147.126 57.8963 146.711 59.4C145.207 59.8148 143.004 60.113 140.1 60.2944C137.196 60.4759 134.656 60.3593 132.478 59.9444ZM126.722 59.0889C123.507 58.4667 120.487 57.4296 117.661 55.9778C114.835 54.5259 112.383 52.7611 110.306 50.6833C108.287 48.6648 106.565 46.2944 105.139 43.5722C103.713 40.85 102.637 37.7519 101.911 34.2778L121.278 14.9111C124.544 15.637 127.591 16.713 130.417 18.1389C133.243 19.5648 135.667 21.2889 137.689 23.3111C139.711 25.3333 141.409 27.7574 142.783 30.5833C144.157 33.4093 145.259 36.4556 146.089 39.7222L126.722 59.0889ZM132.711 48.9778L135.978 45.7111L115.289 25.0222L112.022 28.2889L132.711 48.9778ZM100.978 28.6C100.563 26.4222 100.407 23.9204 100.511 21.0944C100.615 18.2685 100.874 16.1037 101.289 14.6C102.793 14.1852 104.996 13.887 107.9 13.7056C110.804 13.5241 113.344 13.6407 115.522 14.0556L100.978 28.6ZM138.311 65C141.111 65 143.613 64.8056 145.817 64.4167C148.02 64.0278 149.407 63.5605 149.978 63.015C150.548 62.4198 151.028 61.0204 151.417 58.8167C151.806 56.613 152 54.1111 152 51.3111C152 44.8296 151.067 38.8019 149.2 33.2278C147.333 27.6537 144.689 23.1556 141.267 19.7333C137.844 16.3111 133.348 13.6667 127.778 11.8C122.208 9.93333 116.178 9 109.689 9C106.889 9 104.387 9.19444 102.183 9.58333C99.9796 9.97222 98.5926 10.4395 98.0222 10.985C97.4519 11.5802 96.9722 12.9796 96.5833 15.1833C96.1944 17.387 96 19.8889 96 22.6889C96 29.1704 96.9333 35.1981 98.8 40.7722C100.667 46.3463 103.311 50.8444 106.733 54.2667C110.156 57.6889 114.654 60.3333 120.228 62.2C125.802 64.0667 131.83 65 138.311 65Z" fill="#99CBA1"/>
<path d="M1187.13 286.586L1184 283.455L1187.35 280.101L1175.65 268.398L1172.3 271.752L1169.09 268.547L1171.33 266.236C1172.47 265.093 1173.89 264.534 1175.57 264.559C1177.26 264.584 1178.68 265.168 1179.82 266.311L1189.44 275.926C1190.58 277.069 1191.15 278.473 1191.15 280.138C1191.15 281.803 1190.58 283.206 1189.44 284.349L1187.13 286.586ZM1151.35 322.439C1150.21 323.582 1148.8 324.154 1147.14 324.154C1145.47 324.154 1144.07 323.582 1142.93 322.439L1132.27 311.78C1131.42 310.916 1131 309.856 1131 308.598C1131 307.34 1131.42 306.289 1132.27 305.444L1135.55 302.164L1138.75 305.295L1135.4 308.649L1147.1 320.352L1150.45 316.998L1153.59 320.203L1151.35 322.439ZM1180.94 299.481L1187.28 293.145L1162.6 268.472L1156.27 274.808L1180.94 299.481ZM1160.07 320.352L1166.48 313.942L1141.81 289.269L1135.4 295.679L1160.07 320.352ZM1160.74 301.866L1168.87 293.741L1162.01 286.884L1153.88 295.009L1160.74 301.866ZM1163.2 323.483C1162.36 324.328 1161.32 324.75 1160.07 324.75C1158.83 324.75 1157.78 324.328 1156.94 323.483L1132.27 298.81C1131.42 297.969 1131 296.926 1131 295.682C1131 294.438 1131.42 293.394 1132.27 292.549L1138.6 286.138C1139.47 285.294 1140.53 284.871 1141.79 284.871C1143.04 284.871 1144.09 285.294 1144.94 286.138L1150.68 291.878L1158.88 283.679L1153.14 277.939C1152.29 277.097 1151.87 276.055 1151.87 274.811C1151.87 273.567 1152.29 272.522 1153.14 271.678L1159.47 265.267C1160.34 264.422 1161.4 264 1162.66 264C1163.91 264 1164.97 264.422 1165.81 265.267L1190.48 289.94C1191.33 290.803 1191.75 291.864 1191.75 293.122C1191.75 294.38 1191.33 295.431 1190.48 296.276L1184.07 302.612C1183.23 303.456 1182.19 303.879 1180.94 303.879C1179.7 303.879 1178.66 303.456 1177.81 302.612L1172.07 296.872L1163.87 305.071L1169.61 310.811C1170.46 311.675 1170.88 312.735 1170.88 313.993C1170.88 315.251 1170.46 316.302 1169.61 317.147L1163.2 323.483Z" fill="#99CBA1"/>
<path d="M400.129 284.586L396.998 281.455L400.352 278.101L388.649 266.398L385.295 269.752L382.09 266.547L384.326 264.236C385.469 263.093 386.885 262.534 388.575 262.559C390.264 262.584 391.681 263.168 392.824 264.311L402.439 273.926C403.582 275.069 404.154 276.473 404.154 278.138C404.154 279.803 403.582 281.206 402.439 282.349L400.129 284.586ZM364.349 320.439C363.206 321.582 361.803 322.154 360.138 322.154C358.473 322.154 357.069 321.582 355.926 320.439L345.267 309.78C344.422 308.916 344 307.856 344 306.598C344 305.34 344.422 304.289 345.267 303.444L348.547 300.164L351.752 303.295L348.398 306.649L360.101 318.352L363.455 314.998L366.586 318.203L364.349 320.439ZM393.942 297.481L400.278 291.145L375.605 266.472L369.269 272.808L393.942 297.481ZM373.071 318.352L379.481 311.942L354.808 287.269L348.398 293.679L373.071 318.352ZM373.741 299.866L381.866 291.741L375.009 284.884L366.884 293.009L373.741 299.866ZM376.201 321.483C375.36 322.328 374.317 322.75 373.073 322.75C371.829 322.75 370.785 322.328 369.94 321.483L345.267 296.81C344.422 295.969 344 294.926 344 293.682C344 292.438 344.422 291.394 345.267 290.549L351.603 284.138C352.467 283.294 353.527 282.871 354.785 282.871C356.043 282.871 357.094 283.294 357.939 284.138L363.679 289.878L371.878 281.679L366.138 275.939C365.294 275.097 364.871 274.055 364.871 272.811C364.871 271.567 365.294 270.522 366.138 269.678L372.474 263.267C373.338 262.422 374.398 262 375.656 262C376.914 262 377.965 262.422 378.81 263.267L403.483 287.94C404.328 288.803 404.75 289.864 404.75 291.122C404.75 292.38 404.328 293.431 403.483 294.276L397.072 300.612C396.231 301.456 395.188 301.879 393.944 301.879C392.7 301.879 391.656 301.456 390.811 300.612L385.071 294.872L376.872 303.071L382.612 308.811C383.456 309.675 383.879 310.735 383.879 311.993C383.879 313.251 383.456 314.302 382.612 315.147L376.201 321.483Z" fill="#99CBA1"/>
<path d="M1033 317C1027.95 317 1023.69 314.876 1020.21 310.629C1016.74 306.382 1015 301.172 1015 295C1015 294.328 1015.03 293.625 1015.08 292.892C1015.13 292.158 1015.2 291.517 1015.3 290.967C1015.05 291.089 1014.75 291.181 1014.4 291.242C1014.05 291.303 1013.75 291.333 1013.5 291.333C1011.3 291.333 1009.5 290.478 1008.1 288.767C1006.7 287.056 1006 284.856 1006 282.167C1006 279.478 1006.7 277.278 1008.1 275.567C1009.5 273.856 1011.3 273 1013.5 273C1015.05 273 1016.48 273.565 1017.78 274.696C1019.08 275.826 1020 277.247 1020.55 278.958C1022.1 277.247 1023.96 275.826 1026.14 274.696C1028.31 273.565 1030.63 273 1033.08 273H1066V284H1051V295C1051 301.172 1049.26 306.382 1045.79 310.629C1042.31 314.876 1038.05 317 1033 317ZM1013.5 285.833C1014.4 285.833 1015.13 285.497 1015.68 284.825C1016.23 284.153 1016.5 283.267 1016.5 282.167C1016.5 281.067 1016.23 280.181 1015.68 279.508C1015.13 278.836 1014.4 278.5 1013.5 278.5C1012.6 278.5 1011.88 278.836 1011.33 279.508C1010.78 280.181 1010.5 281.067 1010.5 282.167C1010.5 283.267 1010.78 284.153 1011.33 284.825C1011.88 285.497 1012.6 285.833 1013.5 285.833ZM1033 307.833C1036 307.833 1038.5 306.611 1040.5 304.167C1042.5 301.722 1043.5 298.667 1043.5 295C1043.5 291.333 1042.5 288.278 1040.5 285.833C1038.5 283.389 1036 282.167 1033 282.167C1030 282.167 1027.5 283.389 1025.5 285.833C1023.5 288.278 1022.5 291.333 1022.5 295C1022.5 298.667 1023.5 301.722 1025.5 304.167C1027.5 306.611 1030 307.833 1033 307.833ZM1033 302.333C1034.65 302.333 1036.06 301.615 1037.24 300.179C1038.41 298.743 1039 297.017 1039 295C1039 292.983 1038.41 291.257 1037.24 289.821C1036.06 288.385 1034.65 287.667 1033 287.667C1031.35 287.667 1029.94 288.385 1028.76 289.821C1027.59 291.257 1027 292.983 1027 295C1027 297.017 1027.59 298.743 1028.76 300.179C1029.94 301.615 1031.35 302.333 1033 302.333Z" fill="#99CBA1"/>
<path d="M107 319C101.95 319 97.6875 316.876 94.2125 312.629C90.7375 308.382 89 303.172 89 297C89 296.328 89.025 295.625 89.075 294.892C89.125 294.158 89.2 293.517 89.3 292.967C89.05 293.089 88.75 293.181 88.4 293.242C88.05 293.303 87.75 293.333 87.5 293.333C85.3 293.333 83.5 292.478 82.1 290.767C80.7 289.056 80 286.856 80 284.167C80 281.478 80.7 279.278 82.1 277.567C83.5 275.856 85.3 275 87.5 275C89.05 275 90.475 275.565 91.775 276.696C93.075 277.826 94 279.247 94.55 280.958C96.1 279.247 97.9625 277.826 100.138 276.696C102.313 275.565 104.625 275 107.075 275H140V286H125V297C125 303.172 123.263 308.382 119.788 312.629C116.313 316.876 112.05 319 107 319ZM87.5 287.833C88.4 287.833 89.125 287.497 89.675 286.825C90.225 286.153 90.5 285.267 90.5 284.167C90.5 283.067 90.225 282.181 89.675 281.508C89.125 280.836 88.4 280.5 87.5 280.5C86.6 280.5 85.875 280.836 85.325 281.508C84.775 282.181 84.5 283.067 84.5 284.167C84.5 285.267 84.775 286.153 85.325 286.825C85.875 287.497 86.6 287.833 87.5 287.833ZM107 309.833C110 309.833 112.5 308.611 114.5 306.167C116.5 303.722 117.5 300.667 117.5 297C117.5 293.333 116.5 290.278 114.5 287.833C112.5 285.389 110 284.167 107 284.167C104 284.167 101.5 285.389 99.5 287.833C97.5 290.278 96.5 293.333 96.5 297C96.5 300.667 97.5 303.722 99.5 306.167C101.5 308.611 104 309.833 107 309.833ZM107 304.333C108.65 304.333 110.063 303.615 111.238 302.179C112.413 300.743 113 299.017 113 297C113 294.983 112.413 293.257 111.238 291.821C110.063 290.385 108.65 289.667 107 289.667C105.35 289.667 103.938 290.385 102.763 291.821C101.588 293.257 101 294.983 101 297C101 299.017 101.588 300.743 102.763 302.179C103.938 303.615 105.35 304.333 107 304.333Z" fill="#99CBA1"/>
<path d="M1435.29 84C1434.26 84 1433.43 83.7148 1432.8 83.1444C1432.17 82.5741 1431.86 81.8222 1431.86 80.8889V73.5H1466.14V80.8889C1466.14 81.8222 1465.83 82.5741 1465.2 83.1444C1464.57 83.7148 1463.74 84 1462.71 84H1435.29ZM1473 43.1667V53.0444C1473 53.4074 1472.97 53.6407 1472.91 53.7444L1470.26 65.2556C1470.03 66.137 1469.57 66.837 1468.89 67.3556C1468.2 67.8741 1467.37 68.1333 1466.4 68.1333H1431.6C1430.63 68.1333 1429.8 67.8741 1429.11 67.3556C1428.43 66.837 1427.97 66.137 1427.74 65.2556L1425.09 53.7444C1425.03 53.6407 1425 53.4074 1425 53.0444V32.6667C1425 31.3185 1425.49 30.2037 1426.46 29.3222C1427.43 28.4407 1428.66 28 1430.14 28H1461.86C1463.34 28 1464.57 28.4407 1465.54 29.3222C1466.51 30.2037 1467 31.3185 1467 32.6667V43.1667C1467 42.337 1467.27 41.6759 1467.81 41.1833C1468.36 40.6907 1469.09 40.4444 1470 40.4444C1470.91 40.4444 1471.64 40.6907 1472.19 41.1833C1472.73 41.6759 1473 42.337 1473 43.1667ZM1432.63 63.4667H1465.37L1467.86 52.0333V49.1556H1461.86V32.6667H1430.14V52.0333L1432.63 63.4667ZM1436.57 49.1556H1455.43V38.7333H1436.57V49.1556Z" fill="#99CBA1"/>
<path d="M81.2857 155C80.2571 155 79.4286 154.715 78.8 154.144C78.1714 153.574 77.8571 152.822 77.8571 151.889V144.5H112.143V151.889C112.143 152.822 111.829 153.574 111.2 154.144C110.571 154.715 109.743 155 108.714 155H81.2857ZM119 114.167V124.044C119 124.407 118.971 124.641 118.914 124.744L116.257 136.256C116.029 137.137 115.571 137.837 114.886 138.356C114.2 138.874 113.371 139.133 112.4 139.133H77.6C76.6286 139.133 75.8 138.874 75.1143 138.356C74.4286 137.837 73.9714 137.137 73.7429 136.256L71.0857 124.744C71.0286 124.641 71 124.407 71 124.044V103.667C71 102.319 71.4857 101.204 72.4571 100.322C73.4286 99.4407 74.6571 99 76.1429 99H107.857C109.343 99 110.571 99.4407 111.543 100.322C112.514 101.204 113 102.319 113 103.667V114.167C113 113.337 113.271 112.676 113.814 112.183C114.357 111.691 115.086 111.444 116 111.444C116.914 111.444 117.643 111.691 118.186 112.183C118.729 112.676 119 113.337 119 114.167ZM78.6286 134.467H111.371L113.857 123.033V120.156H107.857V103.667H76.1429V123.033L78.6286 134.467ZM82.5714 120.156H101.429V109.733H82.5714V120.156Z" fill="#99CBA1"/>
<path d="M1475.58 280.75H1485.85C1485.5 278.35 1484.8 276.088 1483.75 273.963C1482.7 271.838 1481.4 270 1479.85 268.45C1478.7 270.2 1477.73 272.1 1476.93 274.15C1476.13 276.2 1475.68 278.4 1475.58 280.75ZM1516.15 280.75H1526.43C1526.33 278.4 1525.88 276.2 1525.08 274.15C1524.28 272.1 1523.3 270.2 1522.15 268.45C1520.45 270.15 1519.11 272.025 1518.14 274.075C1517.16 276.125 1516.5 278.35 1516.15 280.75ZM1479.85 297.475C1481.55 295.775 1482.89 293.913 1483.86 291.888C1484.84 289.863 1485.5 287.65 1485.85 285.25H1475.58C1475.68 287.6 1476.13 289.788 1476.93 291.813C1477.73 293.838 1478.7 295.725 1479.85 297.475ZM1522.15 297.475C1523.3 295.725 1524.28 293.838 1525.08 291.813C1525.88 289.788 1526.33 287.6 1526.43 285.25H1516.15C1516.5 287.65 1517.16 289.863 1518.14 291.888C1519.11 293.913 1520.45 295.775 1522.15 297.475ZM1490.43 280.75H1498.75V257.575C1495.65 257.925 1492.76 258.725 1490.09 259.975C1487.41 261.225 1485 262.9 1482.85 265C1484.9 267.05 1486.58 269.425 1487.88 272.125C1489.18 274.825 1490.03 277.7 1490.43 280.75ZM1503.25 280.75H1511.58C1511.98 277.7 1512.84 274.825 1514.16 272.125C1515.49 269.425 1517.18 267.05 1519.23 265C1517.08 262.9 1514.65 261.225 1511.95 259.975C1509.25 258.725 1506.35 257.925 1503.25 257.575V280.75ZM1498.75 308.425V285.25H1490.43C1490.03 288.3 1489.18 291.163 1487.88 293.838C1486.58 296.513 1484.9 298.875 1482.85 300.925C1485 303.025 1487.35 304.713 1489.9 305.988C1492.45 307.263 1495.4 308.075 1498.75 308.425ZM1503.25 308.425C1506.6 308.075 1509.56 307.263 1512.14 305.988C1514.71 304.713 1517.08 303.025 1519.23 300.925C1517.18 298.875 1515.49 296.513 1514.16 293.838C1512.84 291.163 1511.98 288.3 1511.58 285.25H1503.25V308.425ZM1501 313C1496.85 313 1492.95 312.213 1489.3 310.638C1485.65 309.063 1482.48 306.925 1479.78 304.225C1477.08 301.525 1474.94 298.35 1473.36 294.7C1471.79 291.05 1471 287.15 1471 283C1471 278.85 1471.79 274.95 1473.36 271.3C1474.94 267.65 1477.08 264.475 1479.78 261.775C1482.48 259.075 1485.65 256.938 1489.3 255.363C1492.95 253.788 1496.85 253 1501 253C1505.15 253 1509.05 253.788 1512.7 255.363C1516.35 256.938 1519.53 259.075 1522.23 261.775C1524.93 264.475 1527.06 267.65 1528.64 271.3C1530.21 274.95 1531 278.85 1531 283C1531 287.15 1530.21 291.05 1528.64 294.7C1527.06 298.35 1524.93 301.525 1522.23 304.225C1519.53 306.925 1516.35 309.063 1512.7 310.638C1509.05 312.213 1505.15 313 1501 313Z" fill="#99CBA1"/>
<path d="M1492.52 137.944L1477.98 123.4C1477.56 125.578 1477.41 128.08 1477.51 130.906C1477.61 133.731 1477.87 135.896 1478.29 137.4C1479.79 137.815 1482 138.113 1484.9 138.294C1487.8 138.476 1490.34 138.359 1492.52 137.944ZM1498.28 137.089C1501.49 136.467 1504.51 135.43 1507.34 133.978C1510.16 132.526 1512.62 130.761 1514.69 128.683C1516.71 126.665 1518.44 124.294 1519.86 121.572C1521.29 118.85 1522.36 115.752 1523.09 112.278L1503.72 92.9111C1500.46 93.637 1497.41 94.713 1494.58 96.1389C1491.76 97.5648 1489.33 99.2889 1487.31 101.311C1485.29 103.333 1483.59 105.757 1482.22 108.583C1480.84 111.409 1479.74 114.456 1478.91 117.722L1498.28 137.089ZM1492.29 126.978L1489.02 123.711L1509.71 103.022L1512.98 106.289L1492.29 126.978ZM1524.02 106.6C1524.44 104.422 1524.59 101.92 1524.49 99.0944C1524.39 96.2685 1524.13 94.1037 1523.71 92.6C1522.21 92.1852 1520 91.887 1517.1 91.7056C1514.2 91.5241 1511.66 91.6407 1509.48 92.0556L1524.02 106.6ZM1486.69 143C1483.89 143 1481.39 142.806 1479.18 142.417C1476.98 142.028 1475.59 141.561 1475.02 141.015C1474.45 140.42 1473.97 139.02 1473.58 136.817C1473.19 134.613 1473 132.111 1473 129.311C1473 122.83 1473.93 116.802 1475.8 111.228C1477.67 105.654 1480.31 101.156 1483.73 97.7333C1487.16 94.3111 1491.65 91.6667 1497.22 89.8C1502.79 87.9333 1508.82 87 1515.31 87C1518.11 87 1520.61 87.1944 1522.82 87.5833C1525.02 87.9722 1526.41 88.4395 1526.98 88.985C1527.55 89.5802 1528.03 90.9796 1528.42 93.1833C1528.81 95.387 1529 97.8889 1529 100.689C1529 107.17 1528.07 113.198 1526.2 118.772C1524.33 124.346 1521.69 128.844 1518.27 132.267C1514.84 135.689 1510.35 138.333 1504.77 140.2C1499.2 142.067 1493.17 143 1486.69 143Z" fill="#99CBA1"/>
<path d="M56.1285 70.5856L52.9979 67.4549L56.3521 64.1006L44.6494 52.3979L41.2951 55.7521L38.0899 52.5469L40.3261 50.2362C41.469 49.0933 42.8853 48.5342 44.5748 48.559C46.2644 48.5839 47.6807 49.1678 48.8236 50.3107L58.4393 59.9264C59.5822 61.0693 60.1537 62.4732 60.1537 64.1379C60.1537 65.8026 59.5822 67.2064 58.4393 68.3494L56.1285 70.5856ZM20.3494 106.439C19.2064 107.582 17.8026 108.154 16.1379 108.154C14.4732 108.154 13.0693 107.582 11.9264 106.439L1.26718 95.7801C0.422393 94.9165 0 93.8558 0 92.598C0 91.3402 0.422393 90.289 1.26718 89.4442L4.54693 86.1644L7.75215 89.2951L4.39785 92.6494L16.1006 104.352L19.4549 100.998L22.5856 104.203L20.3494 106.439ZM49.9417 83.481L56.2776 77.1451L31.6049 52.4724L25.269 58.8083L49.9417 83.481ZM29.0706 104.352L35.481 97.9417L10.8083 73.269L4.39785 79.6794L29.0706 104.352ZM29.7414 85.8663L37.8663 77.7414L31.0086 70.8837L22.8837 79.0086L29.7414 85.8663ZM32.2012 107.483C31.3597 108.328 30.317 108.75 29.073 108.75C27.829 108.75 26.7847 108.328 25.9399 107.483L1.26718 82.8101C0.422393 81.9686 0 80.9259 0 79.6819C0 78.4379 0.422393 77.3936 1.26718 76.5488L7.60307 70.1383C8.46664 69.2936 9.52731 68.8712 10.7851 68.8712C12.0429 68.8712 13.0942 69.2936 13.939 70.1383L19.6785 75.8779L27.8779 67.6785L22.1383 61.939C21.2936 61.0975 20.8712 60.0547 20.8712 58.8107C20.8712 57.5668 21.2936 56.5224 22.1383 55.6776L28.4742 49.2672C29.3378 48.4224 30.3985 48 31.6563 48C32.9141 48 33.9653 48.4224 34.8101 49.2672L59.4828 73.9399C60.3276 74.8034 60.75 75.8641 60.75 77.1219C60.75 78.3797 60.3276 79.431 59.4828 80.2758L53.0724 86.6117C52.2309 87.4564 51.1882 87.8788 49.9442 87.8788C48.7002 87.8788 47.6558 87.4564 46.811 86.6117L41.0715 80.8721L32.8721 89.0715L38.6117 94.811C39.4564 95.6746 39.8788 96.7353 39.8788 97.9931C39.8788 99.2509 39.4564 100.302 38.6117 101.147L32.2012 107.483Z" fill="#99CBA1"/>
<path d="M69.875 227.2C67.325 225.35 65.35 222.975 63.95 220.075C62.55 217.175 61.85 214.15 61.85 211C61.85 207.85 62.55 204.813 63.95 201.888C65.35 198.963 67.325 196.575 69.875 194.725C71.775 197.025 73.1875 199.563 74.1125 202.338C75.0375 205.113 75.5 208 75.5 211C75.5 214 75.0375 216.875 74.1125 219.625C73.1875 222.375 71.775 224.9 69.875 227.2ZM50 236.5C46.9 236.5 43.9375 236.013 41.1125 235.038C38.2875 234.063 35.675 232.55 33.275 230.5C36.225 228.1 38.5125 225.188 40.1375 221.763C41.7625 218.338 42.575 214.75 42.575 211C42.575 207.25 41.7625 203.65 40.1375 200.2C38.5125 196.75 36.225 193.825 33.275 191.425C35.675 189.425 38.2875 187.938 41.1125 186.963C43.9375 185.988 46.9 185.5 50 185.5C53.1 185.5 56.0625 185.988 58.8875 186.963C61.7125 187.938 64.325 189.425 66.725 191.425C63.775 193.825 61.475 196.75 59.825 200.2C58.175 203.65 57.35 207.25 57.35 211C57.35 214.75 58.175 218.338 59.825 221.763C61.475 225.188 63.775 228.1 66.725 230.5C64.325 232.55 61.7125 234.063 58.8875 235.038C56.0625 236.013 53.1 236.5 50 236.5ZM30.05 227.2C28.15 224.9 26.75 222.375 25.85 219.625C24.95 216.875 24.5 214 24.5 211C24.5 208 24.95 205.113 25.85 202.338C26.75 199.563 28.15 197.025 30.05 194.725C32.6 196.575 34.575 198.963 35.975 201.888C37.375 204.813 38.075 207.85 38.075 211C38.075 214.15 37.375 217.175 35.975 220.075C34.575 222.975 32.6 225.35 30.05 227.2ZM50 241C54.1 241 57.975 240.213 61.625 238.638C65.275 237.063 68.4625 234.913 71.1875 232.188C73.9125 229.463 76.0625 226.275 77.6375 222.625C79.2125 218.975 80 215.1 80 211C80 206.85 79.2125 202.963 77.6375 199.338C76.0625 195.713 73.9125 192.538 71.1875 189.813C68.4625 187.088 65.275 184.938 61.625 183.363C57.975 181.788 54.1 181 50 181C45.85 181 41.9625 181.788 38.3375 183.363C34.7125 184.938 31.5375 187.088 28.8125 189.813C26.0875 192.538 23.9375 195.713 22.3625 199.338C20.7875 202.963 20 206.85 20 211C20 215.1 20.7875 218.975 22.3625 222.625C23.9375 226.275 26.0875 229.463 28.8125 232.188C31.5375 234.913 34.7125 237.063 38.3375 238.638C41.9625 240.213 45.85 241 50 241Z" fill="#99CBA1"/>
</svg>
